<svg xmlns="http://www.w3.org/2000/svg" xmlns:xlink="http://www.w3.org/1999/xlink" width="450" zoomAndPan="magnify" viewBox="0 0 337.5 120.749998" height="161" preserveAspectRatio="xMidYMid meet" version="1.0"><defs><g/><clipPath id="d0942eb33a"><path d="M 9.832031 0 L 336.902344 0 L 336.902344 120.5 L 9.832031 120.5 Z M 9.832031 0 " clip-rule="nonzero"/></clipPath><clipPath id="a96f7c9f9e"><path d="M 70.019531 0 L 277.210938 0 C 293.175781 0 308.484375 6.339844 319.773438 17.628906 C 331.058594 28.917969 337.402344 44.226562 337.402344 60.1875 C 337.402344 76.152344 331.058594 91.460938 319.773438 102.746094 C 308.484375 114.035156 293.175781 120.375 277.210938 120.375 L 70.019531 120.375 C 54.058594 120.375 38.746094 114.035156 27.460938 102.746094 C 16.171875 91.460938 9.832031 76.152344 9.832031 60.1875 C 9.832031 44.226562 16.171875 28.917969 27.460938 17.628906 C 38.746094 6.339844 54.058594 0 70.019531 0 " clip-rule="nonzero"/></clipPath><clipPath id="e37b209029"><path d="M 0.0976562 0 L 120.476562 0 L 120.476562 120.375 L 0.0976562 120.375 Z M 0.0976562 0 " clip-rule="nonzero"/></clipPath><clipPath id="5f4c99e564"><path d="M 60.289062 0 C 27.046875 0 0.0976562 26.945312 0.0976562 60.1875 C 0.0976562 93.429688 27.046875 120.375 60.289062 120.375 C 93.527344 120.375 120.476562 93.429688 120.476562 60.1875 C 120.476562 26.945312 93.527344 0 60.289062 0 " clip-rule="nonzero"/></clipPath><clipPath id="9a348f0e6f"><path d="M 23 15.15625 L 98 15.15625 L 98 90 L 23 90 Z M 23 15.15625 " clip-rule="nonzero"/></clipPath><clipPath id="b6a7b1089e"><path d="M 14.339844 36 L 21 36 L 21 58 L 14.339844 58 Z M 14.339844 36 " clip-rule="nonzero"/></clipPath><clipPath id="d844606389"><path d="M 100 36 L 106.398438 36 L 106.398438 58 L 100 58 Z M 100 36 " clip-rule="nonzero"/></clipPath><clipPath id="befab322ad"><path d="M 41.367188 67.167969 L 80.265625 67.167969 L 80.265625 82.730469 L 41.367188 82.730469 Z M 41.367188 67.167969 " clip-rule="nonzero"/></clipPath><clipPath id="5759ef2032"><path d="M 49.117188 67.167969 L 72.511719 67.167969 C 74.566406 67.167969 76.539062 67.984375 77.992188 69.4375 C 79.445312 70.890625 80.261719 72.863281 80.261719 74.917969 C 80.261719 76.972656 79.445312 78.945312 77.992188 80.398438 C 76.539062 81.851562 74.566406 82.667969 72.511719 82.667969 L 49.117188 82.667969 C 47.058594 82.667969 45.089844 81.851562 43.636719 80.398438 C 42.183594 78.945312 41.367188 76.972656 41.367188 74.917969 C 41.367188 72.863281 42.183594 70.890625 43.636719 69.4375 C 45.089844 67.984375 47.058594 67.167969 49.117188 67.167969 " clip-rule="nonzero"/></clipPath><clipPath id="f910d47070"><path d="M 42.277344 74.917969 L 79.277344 74.917969 L 79.277344 84.609375 L 42.277344 84.609375 Z M 42.277344 74.917969 " clip-rule="nonzero"/></clipPath><clipPath id="73813d485b"><path d="M 54.445312 46.757812 L 88.753906 46.757812 L 88.753906 59.179688 L 54.445312 59.179688 Z M 54.445312 46.757812 " clip-rule="nonzero"/></clipPath><clipPath id="45474f993d"><path d="M 60.617188 46.757812 L 82.066406 46.757812 C 83.703125 46.757812 85.273438 47.410156 86.429688 48.566406 C 87.589844 49.722656 88.238281 51.292969 88.238281 52.929688 C 88.238281 54.566406 87.589844 56.136719 86.429688 57.292969 C 85.273438 58.453125 83.703125 59.101562 82.066406 59.101562 L 60.617188 59.101562 C 58.980469 59.101562 57.410156 58.453125 56.253906 57.292969 C 55.097656 56.136719 54.445312 54.566406 54.445312 52.929688 C 54.445312 51.292969 55.097656 49.722656 56.253906 48.566406 C 57.410156 47.410156 58.980469 46.757812 60.617188 46.757812 " clip-rule="nonzero"/></clipPath><clipPath id="baaf67f52f"><path d="M 39.253906 25.988281 L 81.539062 25.988281 L 81.539062 39 L 39.253906 39 Z M 39.253906 25.988281 " clip-rule="nonzero"/></clipPath><clipPath id="712b6fb185"><path d="M 57 51 L 64 51 L 64 56.820312 L 57 56.820312 Z M 57 51 " clip-rule="nonzero"/></clipPath><clipPath id="9dcd8146d9"><path d="M 161.53125 15.511719 L 175.773438 15.511719 L 175.773438 36.5 L 161.53125 36.5 Z M 161.53125 15.511719 " clip-rule="nonzero"/></clipPath></defs><g clip-path="url(#d0942eb33a)"><g clip-path="url(#a96f7c9f9e)"><path fill="#0583f2" d="M 9.832031 0 L 336.960938 0 L 336.960938 120.105469 L 9.832031 120.105469 Z M 9.832031 0 " fill-opacity="1" fill-rule="nonzero"/></g></g><g clip-path="url(#e37b209029)"><g clip-path="url(#5f4c99e564)"><path fill="#0583f2" d="M 0.0976562 0 L 120.476562 0 L 120.476562 120.375 L 0.0976562 120.375 Z M 0.0976562 0 " fill-opacity="1" fill-rule="nonzero"/></g></g><path fill="#ffffff" d="M 31.457031 92.195312 L 31.457031 97.152344 C 31.457031 99.257812 33.167969 100.964844 35.28125 100.964844 L 39.105469 100.964844 C 41.21875 100.964844 42.933594 99.257812 42.933594 97.152344 L 42.933594 92.195312 Z M 31.457031 92.195312 " fill-opacity="1" fill-rule="nonzero"/><path fill="#ffffff" d="M 77.839844 92.195312 L 77.839844 97.152344 C 77.839844 99.257812 79.554688 100.964844 81.667969 100.964844 L 85.492188 100.964844 C 87.605469 100.964844 89.316406 99.257812 89.316406 97.152344 L 89.316406 92.195312 Z M 77.839844 92.195312 " fill-opacity="1" fill-rule="nonzero"/><g clip-path="url(#9a348f0e6f)"><path fill="#ffffff" d="M 84.125 15.207031 L 36.648438 15.207031 C 29.160156 15.207031 23.089844 21.253906 23.089844 28.71875 L 23.089844 84.457031 C 23.089844 87.1875 25.3125 89.402344 28.050781 89.402344 L 92.722656 89.402344 C 95.464844 89.402344 97.6875 87.1875 97.6875 84.457031 L 97.6875 28.71875 C 97.6875 21.253906 91.613281 15.207031 84.125 15.207031 Z M 35.203125 80.125 C 32.316406 80.125 29.972656 77.792969 29.972656 74.917969 C 29.972656 72.039062 32.316406 69.707031 35.203125 69.707031 C 38.089844 69.707031 40.429688 72.039062 40.429688 74.917969 C 40.429688 77.792969 38.089844 80.125 35.203125 80.125 Z M 76.621094 79.890625 L 46.019531 79.890625 C 45.019531 79.890625 44.214844 79.085938 44.214844 78.09375 C 44.214844 77.101562 45.019531 76.292969 46.019531 76.292969 L 76.621094 76.292969 C 77.621094 76.292969 78.425781 77.101562 78.425781 78.09375 C 78.425781 79.085938 77.621094 79.890625 76.621094 79.890625 Z M 76.621094 73.539062 L 46.019531 73.539062 C 45.019531 73.539062 44.214844 72.734375 44.214844 71.738281 C 44.214844 70.746094 45.019531 69.941406 46.019531 69.941406 L 76.621094 69.941406 C 77.621094 69.941406 78.425781 70.746094 78.425781 71.738281 C 78.425781 72.734375 77.621094 73.539062 76.621094 73.539062 Z M 85.570312 80.125 C 82.683594 80.125 80.34375 77.792969 80.34375 74.917969 C 80.34375 72.039062 82.683594 69.707031 85.570312 69.707031 C 88.460938 69.707031 90.800781 72.039062 90.800781 74.917969 C 90.800781 77.792969 88.460938 80.125 85.570312 80.125 Z M 90.800781 50.871094 C 90.800781 55.9375 86.675781 60.046875 81.59375 60.046875 L 39.179688 60.046875 C 34.097656 60.046875 29.972656 55.9375 29.972656 50.871094 L 29.972656 30.855469 C 29.972656 25.785156 34.097656 21.679688 39.179688 21.679688 L 81.59375 21.679688 C 86.675781 21.679688 90.800781 25.785156 90.800781 30.855469 Z M 90.800781 50.871094 " fill-opacity="1" fill-rule="nonzero"/></g><path fill="#ffffff" d="M 68.472656 57.253906 C 68.574219 54.433594 70.898438 52.175781 73.753906 52.175781 C 76.609375 52.175781 78.929688 54.433594 79.03125 57.253906 L 82.867188 57.253906 C 82.765625 52.324219 78.722656 48.359375 73.753906 48.359375 C 68.78125 48.359375 64.742188 52.324219 64.640625 57.253906 Z M 68.472656 57.253906 " fill-opacity="1" fill-rule="nonzero"/><g clip-path="url(#b6a7b1089e)"><path fill="#ffffff" d="M 20.601562 54.140625 C 20.601562 55.859375 19.203125 57.253906 17.476562 57.253906 C 15.753906 57.253906 14.351562 55.859375 14.351562 54.140625 L 14.351562 40.035156 C 14.351562 38.316406 15.753906 36.925781 17.476562 36.925781 C 19.203125 36.925781 20.601562 38.316406 20.601562 40.035156 Z M 20.601562 54.140625 " fill-opacity="1" fill-rule="nonzero"/></g><g clip-path="url(#d844606389)"><path fill="#ffffff" d="M 106.421875 54.140625 C 106.421875 55.859375 105.023438 57.253906 103.296875 57.253906 C 101.570312 57.253906 100.171875 55.859375 100.171875 54.140625 L 100.171875 40.035156 C 100.171875 38.316406 101.570312 36.925781 103.296875 36.925781 C 105.023438 36.925781 106.421875 38.316406 106.421875 40.035156 Z M 106.421875 54.140625 " fill-opacity="1" fill-rule="nonzero"/></g><g clip-path="url(#befab322ad)"><g clip-path="url(#5759ef2032)"><path fill="#ffffff" d="M 41.367188 67.167969 L 80.265625 67.167969 L 80.265625 82.730469 L 41.367188 82.730469 Z M 41.367188 67.167969 " fill-opacity="1" fill-rule="nonzero"/></g></g><g clip-path="url(#f910d47070)"><path fill="#0583f2" d="M 42.867188 77.957031 C 42.878906 77.902344 42.890625 77.847656 42.90625 77.796875 L 42.953125 77.640625 C 42.976562 77.539062 43.023438 77.441406 43.054688 77.347656 C 43.136719 77.160156 43.222656 76.984375 43.328125 76.820312 C 43.4375 76.664062 43.550781 76.507812 43.6875 76.375 C 43.953125 76.101562 44.261719 75.878906 44.632812 75.710938 L 44.703125 75.679688 L 44.773438 75.652344 C 44.824219 75.632812 44.871094 75.613281 44.921875 75.59375 C 45.023438 75.566406 45.125 75.527344 45.234375 75.503906 C 45.34375 75.472656 45.453125 75.453125 45.570312 75.433594 C 45.574219 75.433594 45.574219 75.433594 45.574219 75.433594 C 45.714844 75.410156 45.75 75.222656 45.628906 75.15625 C 45.511719 75.09375 45.386719 75.042969 45.257812 75.003906 C 45.128906 74.964844 44.996094 74.949219 44.859375 74.929688 C 44.792969 74.921875 44.722656 74.925781 44.65625 74.921875 L 44.550781 74.921875 C 44.515625 74.925781 44.480469 74.929688 44.449219 74.933594 C 43.894531 74.984375 43.355469 75.257812 42.960938 75.667969 C 42.761719 75.871094 42.605469 76.113281 42.484375 76.371094 C 42.367188 76.628906 42.300781 76.910156 42.277344 77.1875 C 42.273438 77.253906 42.277344 77.324219 42.277344 77.394531 C 42.277344 77.429688 42.277344 77.460938 42.277344 77.496094 C 42.28125 77.53125 42.285156 77.566406 42.292969 77.597656 C 42.300781 77.667969 42.308594 77.734375 42.320312 77.800781 C 42.335938 77.867188 42.355469 77.933594 42.375 77.996094 C 42.410156 78.097656 42.449219 78.199219 42.5 78.296875 C 42.578125 78.441406 42.796875 78.40625 42.820312 78.242188 C 42.832031 78.144531 42.847656 78.050781 42.867188 77.957031 Z M 78.730469 78.242188 C 78.75 78.40625 78.972656 78.441406 79.046875 78.296875 C 79.097656 78.199219 79.140625 78.097656 79.171875 77.996094 C 79.195312 77.933594 79.210938 77.867188 79.226562 77.800781 C 79.242188 77.734375 79.246094 77.667969 79.257812 77.597656 C 79.261719 77.566406 79.265625 77.53125 79.269531 77.496094 C 79.273438 77.460938 79.269531 77.429688 79.273438 77.394531 C 79.273438 77.324219 79.273438 77.253906 79.269531 77.1875 C 79.246094 76.910156 79.183594 76.628906 79.066406 76.371094 C 78.945312 76.113281 78.789062 75.871094 78.589844 75.667969 C 78.195312 75.257812 77.652344 74.984375 77.101562 74.933594 C 77.066406 74.929688 77.03125 74.925781 76.996094 74.921875 L 76.894531 74.921875 C 76.824219 74.925781 76.757812 74.921875 76.6875 74.929688 C 76.554688 74.949219 76.417969 74.964844 76.292969 75.003906 C 76.160156 75.042969 76.039062 75.09375 75.921875 75.15625 C 75.796875 75.222656 75.835938 75.410156 75.972656 75.433594 C 75.972656 75.433594 75.976562 75.433594 75.976562 75.433594 C 76.09375 75.453125 76.207031 75.472656 76.3125 75.503906 C 76.421875 75.527344 76.527344 75.566406 76.625 75.59375 C 76.675781 75.613281 76.726562 75.632812 76.773438 75.652344 L 76.84375 75.679688 L 76.914062 75.710938 C 77.285156 75.878906 77.597656 76.101562 77.863281 76.375 C 77.996094 76.507812 78.109375 76.664062 78.21875 76.820312 C 78.324219 76.984375 78.410156 77.160156 78.492188 77.347656 C 78.527344 77.441406 78.570312 77.539062 78.597656 77.640625 L 78.640625 77.796875 C 78.65625 77.847656 78.667969 77.902344 78.679688 77.957031 C 78.699219 78.050781 78.714844 78.144531 78.730469 78.242188 Z M 60.636719 84.609375 C 57.703125 84.609375 54.789062 84.003906 51.976562 82.8125 C 49.25 81.65625 46.617188 79.953125 44.140625 77.742188 C 43.953125 77.574219 43.9375 77.285156 44.101562 77.097656 C 44.269531 76.910156 44.554688 76.890625 44.742188 77.058594 C 49.605469 81.402344 55.101562 83.695312 60.636719 83.695312 C 66.222656 83.695312 71.761719 81.363281 76.652344 76.949219 C 76.839844 76.78125 77.125 76.796875 77.292969 76.984375 C 77.460938 77.171875 77.445312 77.460938 77.257812 77.628906 C 74.769531 79.875 72.113281 81.609375 69.371094 82.78125 C 66.535156 83.992188 63.597656 84.609375 60.636719 84.609375 " fill-opacity="1" fill-rule="nonzero"/></g><g clip-path="url(#73813d485b)"><g clip-path="url(#45474f993d)"><path fill="#0583f2" d="M 54.445312 46.757812 L 88.160156 46.757812 L 88.160156 59.179688 L 54.445312 59.179688 Z M 54.445312 46.757812 " fill-opacity="1" fill-rule="nonzero"/></g></g><g clip-path="url(#baaf67f52f)"><path fill="#ffffff" d="M 80.625 34.382812 C 77.894531 31.648438 74.710938 29.53125 71.160156 28.089844 C 67.730469 26.695312 64.109375 25.992188 60.398438 25.992188 C 56.683594 25.992188 53.0625 26.695312 49.632812 28.089844 C 46.085938 29.53125 42.898438 31.648438 40.167969 34.382812 C 39.253906 35.296875 39.253906 36.777344 40.167969 37.691406 C 41.082031 38.605469 42.5625 38.605469 43.476562 37.691406 C 52.808594 28.359375 67.988281 28.359375 77.316406 37.691406 C 77.773438 38.148438 78.371094 38.378906 78.972656 38.378906 C 79.570312 38.378906 80.167969 38.148438 80.625 37.691406 C 81.539062 36.777344 81.539062 35.296875 80.625 34.382812 Z M 80.625 34.382812 " fill-opacity="1" fill-rule="nonzero"/></g><path fill="#ffffff" d="M 60.390625 34.515625 C 54.972656 34.515625 49.878906 36.628906 46.042969 40.46875 C 45.175781 41.332031 45.175781 42.734375 46.042969 43.597656 C 46.90625 44.460938 48.304688 44.460938 49.171875 43.597656 C 55.359375 37.40625 65.425781 37.40625 71.613281 43.597656 C 72.042969 44.03125 72.609375 44.246094 73.175781 44.246094 C 73.742188 44.246094 74.308594 44.03125 74.742188 43.597656 C 75.605469 42.734375 75.605469 41.332031 74.742188 40.46875 C 70.90625 36.628906 65.808594 34.515625 60.390625 34.515625 Z M 60.390625 34.515625 " fill-opacity="1" fill-rule="nonzero"/><path fill="#ffffff" d="M 60.390625 42.503906 C 57.097656 42.503906 54 43.789062 51.667969 46.125 C 50.808594 46.984375 50.808594 48.378906 51.667969 49.238281 C 52.527344 50.097656 53.921875 50.097656 54.78125 49.238281 C 57.875 46.144531 62.910156 46.144531 66.003906 49.238281 C 66.433594 49.667969 66.996094 49.882812 67.558594 49.882812 C 68.125 49.882812 68.6875 49.667969 69.117188 49.238281 C 69.976562 48.378906 69.976562 46.984375 69.117188 46.125 C 66.785156 43.789062 63.6875 42.503906 60.390625 42.503906 Z M 60.390625 42.503906 " fill-opacity="1" fill-rule="nonzero"/><g clip-path="url(#712b6fb185)"><path fill="#ffffff" d="M 63.070312 54.105469 C 63.070312 54.464844 63 54.808594 62.863281 55.140625 C 62.726562 55.472656 62.53125 55.769531 62.277344 56.023438 C 62.023438 56.277344 61.730469 56.472656 61.398438 56.609375 C 61.066406 56.746094 60.71875 56.816406 60.359375 56.816406 C 60 56.816406 59.65625 56.746094 59.324219 56.609375 C 58.992188 56.472656 58.699219 56.277344 58.445312 56.023438 C 58.191406 55.769531 57.996094 55.472656 57.859375 55.140625 C 57.722656 54.808594 57.652344 54.464844 57.652344 54.105469 C 57.652344 53.746094 57.722656 53.398438 57.859375 53.066406 C 57.996094 52.734375 58.191406 52.441406 58.445312 52.1875 C 58.699219 51.933594 58.992188 51.738281 59.324219 51.601562 C 59.65625 51.464844 60 51.394531 60.359375 51.394531 C 60.71875 51.394531 61.066406 51.464844 61.398438 51.601562 C 61.730469 51.738281 62.023438 51.933594 62.277344 52.1875 C 62.53125 52.441406 62.726562 52.734375 62.863281 53.066406 C 63 53.398438 63.070312 53.746094 63.070312 54.105469 Z M 63.070312 54.105469 " fill-opacity="1" fill-rule="nonzero"/></g><g fill="#ffffff" fill-opacity="1"><g transform="translate(116.894592, 80.444457)"><g><path d="M 37.4375 -37.984375 C 38.164062 -37.953125 38.78125 -37.691406 39.28125 -37.203125 C 39.789062 -36.710938 40.046875 -36.109375 40.046875 -35.390625 L 40.046875 -2.59375 C 40.046875 -1.875 39.800781 -1.257812 39.3125 -0.75 C 38.820312 -0.25 38.179688 0 37.390625 0 C 36.597656 0 35.945312 -0.242188 35.4375 -0.734375 C 34.9375 -1.222656 34.6875 -1.84375 34.6875 -2.59375 L 34.6875 -27.6875 L 24.171875 -11.765625 C 23.910156 -11.429688 23.59375 -11.15625 23.21875 -10.9375 C 22.84375 -10.726562 22.453125 -10.640625 22.046875 -10.671875 C 21.691406 -10.640625 21.320312 -10.726562 20.9375 -10.9375 C 20.5625 -11.15625 20.25 -11.429688 20 -11.765625 L 9.421875 -28.171875 L 9.421875 -2.59375 C 9.421875 -1.84375 9.195312 -1.222656 8.75 -0.734375 C 8.300781 -0.242188 7.695312 0 6.9375 0 C 6.21875 0 5.628906 -0.242188 5.171875 -0.734375 C 4.722656 -1.222656 4.5 -1.84375 4.5 -2.59375 L 4.5 -35.390625 C 4.5 -36.066406 4.75 -36.664062 5.25 -37.1875 C 5.757812 -37.71875 6.394531 -37.984375 7.15625 -37.984375 C 7.582031 -37.984375 8.003906 -37.875 8.421875 -37.65625 C 8.835938 -37.4375 9.171875 -37.148438 9.421875 -36.796875 L 22.265625 -17.34375 L 35.28125 -36.796875 C 35.851562 -37.585938 36.570312 -37.984375 37.4375 -37.984375 Z M 37.4375 -37.984375 "/></g></g></g><g fill="#ffffff" fill-opacity="1"><g transform="translate(161.431466, 80.444457)"><g><path d="M 9.859375 -2.65625 C 9.859375 -1.894531 9.585938 -1.257812 9.046875 -0.75 C 8.503906 -0.25 7.875 0 7.15625 0 C 6.351562 0 5.707031 -0.25 5.21875 -0.75 C 4.738281 -1.257812 4.5 -1.894531 4.5 -2.65625 L 4.5 -35.328125 C 4.5 -36.046875 4.75 -36.660156 5.25 -37.171875 C 5.757812 -37.679688 6.410156 -37.9375 7.203125 -37.9375 C 7.929688 -37.9375 8.554688 -37.679688 9.078125 -37.171875 C 9.597656 -36.660156 9.859375 -36.046875 9.859375 -35.328125 Z M 9.859375 -2.65625 "/></g></g></g><g fill="#ffffff" fill-opacity="1"><g transform="translate(175.789461, 80.444457)"><g><path d="M 31.640625 -3.90625 C 31.972656 -3.46875 32.140625 -2.941406 32.140625 -2.328125 C 32.140625 -1.566406 31.875 -0.953125 31.34375 -0.484375 C 30.820312 -0.015625 30.238281 0.21875 29.59375 0.21875 C 28.6875 0.21875 27.976562 -0.140625 27.46875 -0.859375 L 16.953125 -14.953125 L 6.671875 -0.921875 C 6.128906 -0.160156 5.421875 0.21875 4.546875 0.21875 C 3.898438 0.21875 3.347656 -0.00390625 2.890625 -0.453125 C 2.441406 -0.910156 2.21875 -1.425781 2.21875 -2 C 2.21875 -2.613281 2.4375 -3.210938 2.875 -3.796875 L 13.984375 -18.90625 L 2.8125 -33.921875 C 2.457031 -34.390625 2.28125 -34.914062 2.28125 -35.5 C 2.28125 -36.21875 2.539062 -36.828125 3.0625 -37.328125 C 3.582031 -37.835938 4.1875 -38.09375 4.875 -38.09375 C 5.269531 -38.09375 5.65625 -38 6.03125 -37.8125 C 6.414062 -37.632812 6.734375 -37.367188 6.984375 -37.015625 L 17.390625 -23.03125 L 27.6875 -36.84375 C 28.300781 -37.644531 28.988281 -38.046875 29.75 -38.046875 C 30.394531 -38.046875 30.960938 -37.800781 31.453125 -37.3125 C 31.941406 -36.820312 32.1875 -36.269531 32.1875 -35.65625 C 32.1875 -35.113281 32.003906 -34.585938 31.640625 -34.078125 L 20.375 -19.015625 Z M 31.640625 -3.90625 "/></g></g></g><g fill="#ffffff" fill-opacity="1"><g transform="translate(210.140281, 80.444457)"><g><path d="M 26.234375 -20.703125 C 28.210938 -20.015625 29.84375 -18.882812 31.125 -17.3125 C 32.40625 -15.738281 33.046875 -13.6875 33.046875 -11.15625 C 33.046875 -7.144531 31.878906 -4.28125 29.546875 -2.5625 C 27.222656 -0.851562 24.382812 0 21.03125 0 L 7.09375 0 C 6.375 0 5.757812 -0.25 5.25 -0.75 C 4.75 -1.257812 4.5 -1.875 4.5 -2.59375 L 4.5 -35.328125 C 4.5 -36.046875 4.75 -36.660156 5.25 -37.171875 C 5.757812 -37.679688 6.375 -37.9375 7.09375 -37.9375 L 21.03125 -37.9375 C 24.3125 -37.9375 26.8125 -37.117188 28.53125 -35.484375 C 30.25 -33.859375 31.109375 -31.515625 31.109375 -28.453125 C 31.109375 -26.710938 30.691406 -25.164062 29.859375 -23.8125 C 29.023438 -22.457031 27.816406 -21.421875 26.234375 -20.703125 Z M 25.515625 -27.640625 C 25.515625 -29.335938 25.054688 -30.628906 24.140625 -31.515625 C 23.222656 -32.398438 21.929688 -32.84375 20.265625 -32.84375 L 10.03125 -32.84375 L 10.03125 -22.265625 L 20.375 -22.265625 C 21.851562 -22.304688 23.078125 -22.785156 24.046875 -23.703125 C 25.023438 -24.628906 25.515625 -25.941406 25.515625 -27.640625 Z M 20.96875 -4.984375 C 22.957031 -4.984375 24.546875 -5.5 25.734375 -6.53125 C 26.929688 -7.5625 27.53125 -9.101562 27.53125 -11.15625 C 27.53125 -15.164062 25.253906 -17.171875 20.703125 -17.171875 L 10.03125 -17.171875 L 10.03125 -4.984375 Z M 20.96875 -4.984375 "/></g></g></g><g fill="#ffffff" fill-opacity="1"><g transform="translate(245.520542, 80.444457)"><g><path d="M 31.375 -37.984375 C 32.132812 -37.984375 32.738281 -37.738281 33.1875 -37.25 C 33.644531 -36.757812 33.875 -36.140625 33.875 -35.390625 L 33.875 -14.578125 C 33.875 -11.722656 33.238281 -9.15625 31.96875 -6.875 C 30.707031 -4.601562 28.960938 -2.828125 26.734375 -1.546875 C 24.515625 -0.265625 22.015625 0.375 19.234375 0.375 C 16.421875 0.375 13.894531 -0.265625 11.65625 -1.546875 C 9.414062 -2.828125 7.660156 -4.601562 6.390625 -6.875 C 5.128906 -9.15625 4.5 -11.722656 4.5 -14.578125 L 4.5 -35.390625 C 4.5 -36.140625 4.75 -36.757812 5.25 -37.25 C 5.757812 -37.738281 6.410156 -37.984375 7.203125 -37.984375 C 7.890625 -37.984375 8.492188 -37.726562 9.015625 -37.21875 C 9.546875 -36.71875 9.8125 -36.109375 9.8125 -35.390625 L 9.8125 -14.578125 C 9.8125 -12.703125 10.242188 -11.015625 11.109375 -9.515625 C 11.972656 -8.015625 13.128906 -6.847656 14.578125 -6.015625 C 16.023438 -5.179688 17.578125 -4.765625 19.234375 -4.765625 C 20.972656 -4.765625 22.582031 -5.179688 24.0625 -6.015625 C 25.539062 -6.847656 26.722656 -8.015625 27.609375 -9.515625 C 28.492188 -11.015625 28.9375 -12.703125 28.9375 -14.578125 L 28.9375 -35.390625 C 28.9375 -36.140625 29.148438 -36.757812 29.578125 -37.25 C 30.015625 -37.738281 30.613281 -37.984375 31.375 -37.984375 Z M 31.375 -37.984375 "/></g></g></g><g fill="#ffffff" fill-opacity="1"><g transform="translate(283.880763, 80.444457)"><g><path d="M 15.984375 0.546875 C 13.347656 0.546875 11.015625 0.175781 8.984375 -0.5625 C 6.960938 -1.3125 5.035156 -2.515625 3.203125 -4.171875 C 2.441406 -4.816406 2.0625 -5.554688 2.0625 -6.390625 C 2.0625 -7.046875 2.3125 -7.632812 2.8125 -8.15625 C 3.320312 -8.675781 3.921875 -8.9375 4.609375 -8.9375 C 5.222656 -8.9375 5.742188 -8.738281 6.171875 -8.34375 C 7.617188 -7.007812 9.109375 -6.023438 10.640625 -5.390625 C 12.179688 -4.753906 13.925781 -4.4375 15.875 -4.4375 C 18.15625 -4.4375 20.078125 -4.960938 21.640625 -6.015625 C 23.210938 -7.066406 24 -8.382812 24 -9.96875 C 23.96875 -11.84375 23.179688 -13.296875 21.640625 -14.328125 C 20.109375 -15.359375 17.769531 -16.21875 14.625 -16.90625 C 10.90625 -17.664062 8.039062 -18.910156 6.03125 -20.640625 C 4.03125 -22.378906 3.03125 -24.785156 3.03125 -27.859375 C 3.03125 -29.984375 3.585938 -31.847656 4.703125 -33.453125 C 5.828125 -35.066406 7.382812 -36.304688 9.375 -37.171875 C 11.363281 -38.035156 13.601562 -38.46875 16.09375 -38.46875 C 18.332031 -38.46875 20.441406 -38.109375 22.421875 -37.390625 C 24.410156 -36.671875 26.019531 -35.710938 27.25 -34.515625 C 28.082031 -33.796875 28.5 -33.019531 28.5 -32.1875 C 28.5 -31.539062 28.253906 -30.960938 27.765625 -30.453125 C 27.285156 -29.941406 26.703125 -29.6875 26.015625 -29.6875 C 25.503906 -29.6875 25.085938 -29.832031 24.765625 -30.125 C 23.828125 -31.0625 22.523438 -31.851562 20.859375 -32.5 C 19.203125 -33.15625 17.613281 -33.484375 16.09375 -33.484375 C 13.675781 -33.484375 11.753906 -32.984375 10.328125 -31.984375 C 8.898438 -30.992188 8.1875 -29.6875 8.1875 -28.0625 C 8.1875 -26.289062 8.898438 -24.9375 10.328125 -24 C 11.753906 -23.0625 13.875 -22.269531 16.6875 -21.625 C 19.507812 -21.007812 21.8125 -20.285156 23.59375 -19.453125 C 25.382812 -18.617188 26.765625 -17.460938 27.734375 -15.984375 C 28.710938 -14.503906 29.203125 -12.570312 29.203125 -10.1875 C 29.203125 -8.09375 28.613281 -6.234375 27.4375 -4.609375 C 26.269531 -2.984375 24.671875 -1.71875 22.640625 -0.8125 C 20.617188 0.09375 18.398438 0.546875 15.984375 0.546875 Z M 15.984375 0.546875 "/></g></g></g><g clip-path="url(#9dcd8146d9)"><path fill="#ffffff" d="M 168.652344 15.515625 C 164.71875 15.515625 161.53125 18.804688 161.53125 22.859375 C 161.53125 28.363281 168.652344 36.492188 168.652344 36.492188 C 168.652344 36.492188 175.773438 28.363281 175.773438 22.859375 C 175.773438 18.804688 172.582031 15.515625 168.652344 15.515625 Z M 168.652344 25.480469 C 167.246094 25.480469 166.109375 24.304688 166.109375 22.859375 C 166.109375 21.410156 167.246094 20.238281 168.652344 20.238281 C 170.054688 20.238281 171.195312 21.410156 171.195312 22.859375 C 171.195312 24.304688 170.054688 25.480469 168.652344 25.480469 Z M 168.652344 25.480469 " fill-opacity="1" fill-rule="nonzero"/></g></svg>