<svg xmlns="http://www.w3.org/2000/svg" xmlns:xlink="http://www.w3.org/1999/xlink" width="566" zoomAndPan="magnify" viewBox="0 0 424.5 60.75" height="81" preserveAspectRatio="xMidYMid meet" version="1.0"><defs><g/><clipPath id="15a361d339"><path d="M 12 54 L 21 54 L 21 60.464844 L 12 60.464844 Z M 12 54 " clip-rule="nonzero"/></clipPath><clipPath id="69f85f9631"><path d="M 43 54 L 52 54 L 52 60.464844 L 43 60.464844 Z M 43 54 " clip-rule="nonzero"/></clipPath><clipPath id="e71f56c6b0"><path d="M 6 1.890625 L 58 1.890625 L 58 53 L 6 53 Z M 6 1.890625 " clip-rule="nonzero"/></clipPath><clipPath id="8b23a212d5"><path d="M 0.621094 16 L 5 16 L 5 31 L 0.621094 31 Z M 0.621094 16 " clip-rule="nonzero"/></clipPath><clipPath id="f505796f5b"><path d="M 59 16 L 63.398438 16 L 63.398438 31 L 59 31 Z M 59 16 " clip-rule="nonzero"/></clipPath><clipPath id="57c566c8f9"><path d="M 19.050781 37.359375 L 45.578125 37.359375 L 45.578125 47.972656 L 19.050781 47.972656 Z M 19.050781 37.359375 " clip-rule="nonzero"/></clipPath><clipPath id="ed7aea08ff"><path d="M 24.335938 37.359375 L 40.292969 37.359375 C 41.691406 37.359375 43.039062 37.917969 44.027344 38.910156 C 45.019531 39.898438 45.574219 41.246094 45.574219 42.644531 C 45.574219 44.046875 45.019531 45.390625 44.027344 46.382812 C 43.039062 47.375 41.691406 47.929688 40.292969 47.929688 L 24.335938 47.929688 C 22.933594 47.929688 21.589844 47.375 20.601562 46.382812 C 19.609375 45.390625 19.050781 44.046875 19.050781 42.644531 C 19.050781 41.246094 19.609375 39.898438 20.601562 38.910156 C 21.589844 37.917969 22.933594 37.359375 24.335938 37.359375 " clip-rule="nonzero"/></clipPath><clipPath id="1f1fea76de"><path d="M 19.671875 42.644531 L 44.902344 42.644531 L 44.902344 49.253906 L 19.671875 49.253906 Z M 19.671875 42.644531 " clip-rule="nonzero"/></clipPath><clipPath id="1b55ff1253"><path d="M 27.972656 23.445312 L 51 23.445312 L 51 31.914062 L 27.972656 31.914062 Z M 27.972656 23.445312 " clip-rule="nonzero"/></clipPath><clipPath id="6567f1e8c0"><path d="M 32.179688 23.445312 L 46.808594 23.445312 C 47.921875 23.445312 48.992188 23.886719 49.78125 24.675781 C 50.570312 25.464844 51.015625 26.535156 51.015625 27.652344 C 51.015625 28.769531 50.570312 29.839844 49.78125 30.628906 C 48.992188 31.417969 47.921875 31.859375 46.808594 31.859375 L 32.179688 31.859375 C 31.0625 31.859375 29.992188 31.417969 29.203125 30.628906 C 28.414062 29.839844 27.972656 28.769531 27.972656 27.652344 C 27.972656 26.535156 28.414062 25.464844 29.203125 24.675781 C 29.992188 23.886719 31.0625 23.445312 32.179688 23.445312 " clip-rule="nonzero"/></clipPath><clipPath id="682a4635c5"><path d="M 17.609375 9.277344 L 46.445312 9.277344 L 46.445312 18 L 17.609375 18 Z M 17.609375 9.277344 " clip-rule="nonzero"/></clipPath><clipPath id="e409747e4e"><path d="M 30 26 L 34 26 L 34 30.304688 L 30 30.304688 Z M 30 26 " clip-rule="nonzero"/></clipPath><clipPath id="f88970d29f"><path d="M 100.996094 2.132812 L 110.714844 2.132812 L 110.714844 16.34375 L 100.996094 16.34375 Z M 100.996094 2.132812 " clip-rule="nonzero"/></clipPath></defs><g clip-path="url(#15a361d339)"><path fill="#ffffff" d="M 12.292969 54.429688 L 12.292969 57.808594 C 12.292969 59.242188 13.460938 60.40625 14.902344 60.40625 L 17.511719 60.40625 C 18.953125 60.40625 20.121094 59.242188 20.121094 57.808594 L 20.121094 54.429688 Z M 12.292969 54.429688 " fill-opacity="1" fill-rule="nonzero"/></g><g clip-path="url(#69f85f9631)"><path fill="#ffffff" d="M 43.925781 54.429688 L 43.925781 57.808594 C 43.925781 59.242188 45.09375 60.40625 46.535156 60.40625 L 49.140625 60.40625 C 50.582031 60.40625 51.75 59.242188 51.75 57.808594 L 51.75 54.429688 Z M 43.925781 54.429688 " fill-opacity="1" fill-rule="nonzero"/></g><g clip-path="url(#e71f56c6b0)"><path fill="#ffffff" d="M 48.210938 1.925781 L 15.835938 1.925781 C 10.726562 1.925781 6.585938 6.050781 6.585938 11.140625 L 6.585938 49.152344 C 6.585938 51.011719 8.101562 52.523438 9.972656 52.523438 L 54.074219 52.523438 C 55.941406 52.523438 57.457031 51.011719 57.457031 49.152344 L 57.457031 11.140625 C 57.457031 6.050781 53.316406 1.925781 48.210938 1.925781 Z M 14.847656 46.195312 C 12.878906 46.195312 11.285156 44.605469 11.285156 42.644531 C 11.285156 40.683594 12.878906 39.09375 14.847656 39.09375 C 16.816406 39.09375 18.414062 40.683594 18.414062 42.644531 C 18.414062 44.605469 16.816406 46.195312 14.847656 46.195312 Z M 43.09375 46.035156 L 22.222656 46.035156 C 21.542969 46.035156 20.992188 45.488281 20.992188 44.8125 C 20.992188 44.132812 21.542969 43.585938 22.222656 43.585938 L 43.09375 43.585938 C 43.773438 43.585938 44.324219 44.132812 44.324219 44.8125 C 44.324219 45.488281 43.773438 46.035156 43.09375 46.035156 Z M 43.09375 41.703125 L 22.222656 41.703125 C 21.542969 41.703125 20.992188 41.15625 20.992188 40.476562 C 20.992188 39.800781 21.542969 39.253906 22.222656 39.253906 L 43.09375 39.253906 C 43.773438 39.253906 44.324219 39.800781 44.324219 40.476562 C 44.324219 41.15625 43.773438 41.703125 43.09375 41.703125 Z M 49.195312 46.195312 C 47.226562 46.195312 45.632812 44.605469 45.632812 42.644531 C 45.632812 40.683594 47.226562 39.09375 49.195312 39.09375 C 51.164062 39.09375 52.761719 40.683594 52.761719 42.644531 C 52.761719 44.605469 51.164062 46.195312 49.195312 46.195312 Z M 52.761719 26.246094 C 52.761719 29.703125 49.949219 32.503906 46.484375 32.503906 L 17.5625 32.503906 C 14.09375 32.503906 11.285156 29.703125 11.285156 26.246094 L 11.285156 12.597656 C 11.285156 9.140625 14.09375 6.339844 17.5625 6.339844 L 46.484375 6.339844 C 49.949219 6.339844 52.761719 9.140625 52.761719 12.597656 Z M 52.761719 26.246094 " fill-opacity="1" fill-rule="nonzero"/></g><path fill="#ffffff" d="M 37.539062 30.601562 C 37.605469 28.675781 39.191406 27.136719 41.136719 27.136719 C 43.085938 27.136719 44.667969 28.675781 44.738281 30.601562 L 47.351562 30.601562 C 47.28125 27.238281 44.527344 24.535156 41.136719 24.535156 C 37.746094 24.535156 34.992188 27.238281 34.921875 30.601562 Z M 37.539062 30.601562 " fill-opacity="1" fill-rule="nonzero"/><g clip-path="url(#8b23a212d5)"><path fill="#ffffff" d="M 4.890625 28.476562 C 4.890625 29.648438 3.9375 30.601562 2.761719 30.601562 C 1.585938 30.601562 0.632812 29.648438 0.632812 28.476562 L 0.632812 18.859375 C 0.632812 17.6875 1.585938 16.738281 2.761719 16.738281 C 3.9375 16.738281 4.890625 17.6875 4.890625 18.859375 Z M 4.890625 28.476562 " fill-opacity="1" fill-rule="nonzero"/></g><g clip-path="url(#f505796f5b)"><path fill="#ffffff" d="M 63.414062 28.476562 C 63.414062 29.648438 62.460938 30.601562 61.285156 30.601562 C 60.105469 30.601562 59.152344 29.648438 59.152344 28.476562 L 59.152344 18.859375 C 59.152344 17.6875 60.105469 16.738281 61.285156 16.738281 C 62.460938 16.738281 63.414062 17.6875 63.414062 18.859375 Z M 63.414062 28.476562 " fill-opacity="1" fill-rule="nonzero"/></g><g clip-path="url(#57c566c8f9)"><g clip-path="url(#ed7aea08ff)"><path fill="#ffffff" d="M 19.050781 37.359375 L 45.578125 37.359375 L 45.578125 47.972656 L 19.050781 47.972656 Z M 19.050781 37.359375 " fill-opacity="1" fill-rule="nonzero"/></g></g><g clip-path="url(#1f1fea76de)"><path fill="#0583f2" d="M 20.074219 44.71875 C 20.085938 44.679688 20.089844 44.644531 20.101562 44.609375 L 20.132812 44.503906 C 20.148438 44.433594 20.179688 44.367188 20.203125 44.300781 C 20.257812 44.175781 20.320312 44.054688 20.390625 43.945312 C 20.464844 43.835938 20.542969 43.730469 20.632812 43.636719 C 20.816406 43.453125 21.027344 43.300781 21.28125 43.1875 L 21.328125 43.164062 L 21.375 43.144531 C 21.410156 43.132812 21.441406 43.121094 21.476562 43.105469 C 21.542969 43.089844 21.617188 43.0625 21.6875 43.042969 C 21.761719 43.023438 21.839844 43.011719 21.917969 42.996094 C 21.921875 42.996094 21.921875 42.996094 21.921875 42.996094 C 22.015625 42.980469 22.042969 42.855469 21.957031 42.808594 C 21.878906 42.765625 21.792969 42.730469 21.703125 42.703125 C 21.617188 42.675781 21.527344 42.664062 21.433594 42.652344 C 21.386719 42.648438 21.339844 42.648438 21.292969 42.648438 L 21.222656 42.648438 C 21.199219 42.648438 21.175781 42.652344 21.152344 42.65625 C 20.777344 42.691406 20.40625 42.875 20.136719 43.15625 C 20.003906 43.296875 19.894531 43.460938 19.8125 43.636719 C 19.734375 43.8125 19.6875 44.003906 19.671875 44.191406 C 19.671875 44.238281 19.671875 44.289062 19.671875 44.335938 C 19.671875 44.359375 19.671875 44.382812 19.675781 44.40625 C 19.675781 44.429688 19.679688 44.449219 19.683594 44.472656 C 19.691406 44.519531 19.695312 44.566406 19.703125 44.613281 C 19.714844 44.65625 19.726562 44.703125 19.738281 44.746094 C 19.761719 44.816406 19.792969 44.882812 19.824219 44.949219 C 19.878906 45.046875 20.027344 45.023438 20.042969 44.910156 C 20.050781 44.84375 20.0625 44.78125 20.074219 44.71875 Z M 44.53125 44.910156 C 44.546875 45.023438 44.695312 45.046875 44.746094 44.949219 C 44.78125 44.882812 44.808594 44.816406 44.832031 44.746094 C 44.847656 44.703125 44.859375 44.65625 44.871094 44.613281 C 44.878906 44.566406 44.882812 44.519531 44.890625 44.472656 C 44.894531 44.449219 44.898438 44.429688 44.898438 44.40625 C 44.902344 44.382812 44.902344 44.359375 44.902344 44.335938 C 44.902344 44.289062 44.902344 44.238281 44.902344 44.191406 C 44.882812 44.003906 44.839844 43.8125 44.761719 43.636719 C 44.675781 43.460938 44.570312 43.296875 44.433594 43.15625 C 44.164062 42.875 43.796875 42.691406 43.421875 42.65625 C 43.398438 42.652344 43.375 42.648438 43.351562 42.648438 L 43.277344 42.648438 C 43.230469 42.648438 43.1875 42.648438 43.140625 42.652344 C 43.046875 42.664062 42.957031 42.675781 42.867188 42.703125 C 42.78125 42.730469 42.695312 42.765625 42.617188 42.808594 C 42.53125 42.855469 42.558594 42.980469 42.652344 42.996094 C 42.734375 43.011719 42.808594 43.023438 42.882812 43.042969 C 42.957031 43.0625 43.027344 43.089844 43.097656 43.105469 C 43.132812 43.121094 43.164062 43.132812 43.195312 43.144531 L 43.246094 43.164062 L 43.292969 43.1875 C 43.546875 43.300781 43.757812 43.453125 43.9375 43.636719 C 44.03125 43.730469 44.109375 43.835938 44.183594 43.945312 C 44.253906 44.054688 44.3125 44.175781 44.371094 44.300781 C 44.390625 44.367188 44.421875 44.433594 44.441406 44.503906 L 44.472656 44.609375 C 44.480469 44.644531 44.488281 44.679688 44.496094 44.71875 C 44.511719 44.78125 44.523438 44.84375 44.53125 44.910156 Z M 32.195312 49.253906 C 30.191406 49.253906 28.207031 48.839844 26.285156 48.027344 C 24.429688 47.242188 22.632812 46.078125 20.945312 44.570312 C 20.816406 44.457031 20.804688 44.261719 20.917969 44.132812 C 21.03125 44.003906 21.226562 43.992188 21.355469 44.105469 C 24.667969 47.066406 28.417969 48.632812 32.195312 48.632812 C 36.003906 48.632812 39.777344 47.039062 43.113281 44.03125 C 43.242188 43.917969 43.4375 43.929688 43.550781 44.054688 C 43.664062 44.183594 43.65625 44.378906 43.527344 44.496094 C 41.828125 46.027344 40.019531 47.207031 38.148438 48.007812 C 36.214844 48.835938 34.210938 49.253906 32.195312 49.253906 " fill-opacity="1" fill-rule="nonzero"/></g><g clip-path="url(#1b55ff1253)"><g clip-path="url(#6567f1e8c0)"><path fill="#0583f2" d="M 27.972656 23.445312 L 50.964844 23.445312 L 50.964844 31.914062 L 27.972656 31.914062 Z M 27.972656 23.445312 " fill-opacity="1" fill-rule="nonzero"/></g></g><g clip-path="url(#682a4635c5)"><path fill="#ffffff" d="M 45.824219 15.003906 C 43.960938 13.136719 41.789062 11.695312 39.367188 10.710938 C 37.03125 9.761719 34.5625 9.28125 32.03125 9.28125 C 29.496094 9.28125 27.027344 9.761719 24.691406 10.710938 C 22.269531 11.695312 20.097656 13.136719 18.234375 15.003906 C 17.613281 15.625 17.613281 16.636719 18.234375 17.261719 C 18.859375 17.882812 19.867188 17.882812 20.492188 17.261719 C 26.855469 10.894531 37.207031 10.894531 43.566406 17.261719 C 43.878906 17.574219 44.289062 17.730469 44.695312 17.730469 C 45.105469 17.730469 45.511719 17.574219 45.824219 17.261719 C 46.449219 16.636719 46.449219 15.625 45.824219 15.003906 Z M 45.824219 15.003906 " fill-opacity="1" fill-rule="nonzero"/></g><path fill="#ffffff" d="M 32.027344 15.09375 C 28.332031 15.09375 24.855469 16.535156 22.238281 19.152344 C 21.652344 19.742188 21.652344 20.699219 22.238281 21.289062 C 22.828125 21.878906 23.785156 21.878906 24.375 21.289062 C 28.59375 17.066406 35.457031 17.066406 39.675781 21.289062 C 39.972656 21.582031 40.359375 21.730469 40.742188 21.730469 C 41.128906 21.730469 41.515625 21.582031 41.8125 21.289062 C 42.398438 20.699219 42.398438 19.742188 41.8125 19.152344 C 39.195312 16.535156 35.71875 15.09375 32.023438 15.09375 Z M 32.027344 15.09375 " fill-opacity="1" fill-rule="nonzero"/><path fill="#ffffff" d="M 32.027344 20.542969 C 29.78125 20.542969 27.667969 21.417969 26.078125 23.011719 C 25.488281 23.597656 25.488281 24.546875 26.078125 25.132812 C 26.664062 25.722656 27.613281 25.722656 28.199219 25.132812 C 30.308594 23.023438 33.742188 23.023438 35.851562 25.132812 C 36.144531 25.425781 36.53125 25.574219 36.914062 25.574219 C 37.296875 25.574219 37.683594 25.425781 37.976562 25.132812 C 38.5625 24.546875 38.5625 23.597656 37.976562 23.011719 C 36.386719 21.417969 34.273438 20.542969 32.027344 20.542969 Z M 32.027344 20.542969 " fill-opacity="1" fill-rule="nonzero"/><g clip-path="url(#e409747e4e)"><path fill="#ffffff" d="M 33.851562 28.453125 C 33.851562 28.699219 33.804688 28.933594 33.710938 29.160156 C 33.617188 29.386719 33.484375 29.585938 33.3125 29.761719 C 33.136719 29.933594 32.9375 30.066406 32.710938 30.160156 C 32.484375 30.253906 32.25 30.300781 32.003906 30.300781 C 31.761719 30.300781 31.523438 30.253906 31.296875 30.160156 C 31.070312 30.066406 30.871094 29.933594 30.699219 29.761719 C 30.527344 29.585938 30.390625 29.386719 30.296875 29.160156 C 30.203125 28.933594 30.15625 28.699219 30.15625 28.453125 C 30.15625 28.207031 30.203125 27.972656 30.296875 27.746094 C 30.390625 27.519531 30.527344 27.320312 30.699219 27.144531 C 30.871094 26.972656 31.070312 26.839844 31.296875 26.746094 C 31.523438 26.652344 31.761719 26.605469 32.003906 26.605469 C 32.25 26.605469 32.484375 26.652344 32.710938 26.746094 C 32.9375 26.839844 33.136719 26.972656 33.3125 27.144531 C 33.484375 27.320312 33.617188 27.519531 33.710938 27.746094 C 33.804688 27.972656 33.851562 28.207031 33.851562 28.453125 Z M 33.851562 28.453125 " fill-opacity="1" fill-rule="nonzero"/></g><g fill="#ffffff" fill-opacity="1"><g transform="translate(70.476854, 46.414402)"><g><path d="M 25.53125 -25.90625 C 26.03125 -25.882812 26.453125 -25.707031 26.796875 -25.375 C 27.140625 -25.039062 27.3125 -24.625 27.3125 -24.125 L 27.3125 -1.78125 C 27.3125 -1.28125 27.144531 -0.859375 26.8125 -0.515625 C 26.476562 -0.171875 26.039062 0 25.5 0 C 24.957031 0 24.515625 -0.164062 24.171875 -0.5 C 23.828125 -0.832031 23.65625 -1.257812 23.65625 -1.78125 L 23.65625 -18.890625 L 16.484375 -8.015625 C 16.304688 -7.796875 16.085938 -7.613281 15.828125 -7.46875 C 15.578125 -7.320312 15.316406 -7.257812 15.046875 -7.28125 C 14.796875 -7.257812 14.539062 -7.320312 14.28125 -7.46875 C 14.019531 -7.613281 13.804688 -7.796875 13.640625 -8.015625 L 6.4375 -19.21875 L 6.4375 -1.78125 C 6.4375 -1.257812 6.28125 -0.832031 5.96875 -0.5 C 5.65625 -0.164062 5.242188 0 4.734375 0 C 4.234375 0 3.828125 -0.164062 3.515625 -0.5 C 3.210938 -0.832031 3.0625 -1.257812 3.0625 -1.78125 L 3.0625 -24.125 C 3.0625 -24.59375 3.234375 -25.003906 3.578125 -25.359375 C 3.929688 -25.722656 4.363281 -25.90625 4.875 -25.90625 C 5.175781 -25.90625 5.46875 -25.828125 5.75 -25.671875 C 6.03125 -25.523438 6.257812 -25.332031 6.4375 -25.09375 L 15.1875 -11.828125 L 24.0625 -25.09375 C 24.445312 -25.632812 24.9375 -25.90625 25.53125 -25.90625 Z M 25.53125 -25.90625 "/></g></g></g><g fill="#ffffff" fill-opacity="1"><g transform="translate(100.847758, 46.414402)"><g><path d="M 6.71875 -1.8125 C 6.71875 -1.289062 6.53125 -0.859375 6.15625 -0.515625 C 5.789062 -0.171875 5.363281 0 4.875 0 C 4.332031 0 3.894531 -0.171875 3.5625 -0.515625 C 3.226562 -0.859375 3.0625 -1.289062 3.0625 -1.8125 L 3.0625 -24.09375 C 3.0625 -24.582031 3.234375 -25 3.578125 -25.34375 C 3.929688 -25.695312 4.378906 -25.875 4.921875 -25.875 C 5.410156 -25.875 5.832031 -25.695312 6.1875 -25.34375 C 6.539062 -25 6.71875 -24.582031 6.71875 -24.09375 Z M 6.71875 -1.8125 "/></g></g></g><g fill="#ffffff" fill-opacity="1"><g transform="translate(110.638865, 46.414402)"><g><path d="M 21.578125 -2.65625 C 21.796875 -2.363281 21.90625 -2.007812 21.90625 -1.59375 C 21.90625 -1.070312 21.726562 -0.648438 21.375 -0.328125 C 21.019531 -0.015625 20.617188 0.140625 20.171875 0.140625 C 19.554688 0.140625 19.078125 -0.101562 18.734375 -0.59375 L 11.5625 -10.203125 L 4.546875 -0.625 C 4.171875 -0.113281 3.691406 0.140625 3.109375 0.140625 C 2.660156 0.140625 2.28125 -0.0078125 1.96875 -0.3125 C 1.664062 -0.625 1.515625 -0.976562 1.515625 -1.375 C 1.515625 -1.789062 1.660156 -2.195312 1.953125 -2.59375 L 9.53125 -12.890625 L 1.921875 -23.125 C 1.671875 -23.445312 1.546875 -23.804688 1.546875 -24.203125 C 1.546875 -24.691406 1.722656 -25.109375 2.078125 -25.453125 C 2.441406 -25.804688 2.859375 -25.984375 3.328125 -25.984375 C 3.597656 -25.984375 3.863281 -25.921875 4.125 -25.796875 C 4.382812 -25.671875 4.597656 -25.484375 4.765625 -25.234375 L 11.859375 -15.703125 L 18.890625 -25.125 C 19.304688 -25.664062 19.769531 -25.9375 20.28125 -25.9375 C 20.726562 -25.9375 21.117188 -25.769531 21.453125 -25.4375 C 21.785156 -25.101562 21.953125 -24.726562 21.953125 -24.3125 C 21.953125 -23.945312 21.828125 -23.59375 21.578125 -23.25 L 13.890625 -12.96875 Z M 21.578125 -2.65625 "/></g></g></g><g fill="#ffffff" fill-opacity="1"><g transform="translate(134.063622, 46.414402)"><g><path d="M 17.890625 -14.109375 C 19.242188 -13.640625 20.359375 -12.867188 21.234375 -11.796875 C 22.109375 -10.734375 22.546875 -9.335938 22.546875 -7.609375 C 22.546875 -4.878906 21.75 -2.925781 20.15625 -1.75 C 18.570312 -0.582031 16.632812 0 14.34375 0 L 4.84375 0 C 4.351562 0 3.929688 -0.171875 3.578125 -0.515625 C 3.234375 -0.859375 3.0625 -1.28125 3.0625 -1.78125 L 3.0625 -24.09375 C 3.0625 -24.582031 3.234375 -25 3.578125 -25.34375 C 3.929688 -25.695312 4.351562 -25.875 4.84375 -25.875 L 14.34375 -25.875 C 16.582031 -25.875 18.285156 -25.316406 19.453125 -24.203125 C 20.628906 -23.097656 21.21875 -21.5 21.21875 -19.40625 C 21.21875 -18.21875 20.929688 -17.160156 20.359375 -16.234375 C 19.796875 -15.316406 18.972656 -14.609375 17.890625 -14.109375 Z M 17.40625 -18.84375 C 17.40625 -20 17.085938 -20.878906 16.453125 -21.484375 C 15.828125 -22.085938 14.953125 -22.390625 13.828125 -22.390625 L 6.84375 -22.390625 L 6.84375 -15.1875 L 13.890625 -15.1875 C 14.898438 -15.207031 15.738281 -15.53125 16.40625 -16.15625 C 17.070312 -16.789062 17.40625 -17.6875 17.40625 -18.84375 Z M 14.296875 -3.40625 C 15.648438 -3.40625 16.734375 -3.753906 17.546875 -4.453125 C 18.359375 -5.148438 18.765625 -6.203125 18.765625 -7.609375 C 18.765625 -10.347656 17.210938 -11.71875 14.109375 -11.71875 L 6.84375 -11.71875 L 6.84375 -3.40625 Z M 14.296875 -3.40625 "/></g></g></g><g fill="#ffffff" fill-opacity="1"><g transform="translate(158.190383, 46.414402)"><g><path d="M 21.390625 -25.90625 C 21.910156 -25.90625 22.320312 -25.738281 22.625 -25.40625 C 22.9375 -25.070312 23.09375 -24.644531 23.09375 -24.125 L 23.09375 -9.9375 C 23.09375 -7.988281 22.660156 -6.238281 21.796875 -4.6875 C 20.941406 -3.132812 19.753906 -1.921875 18.234375 -1.046875 C 16.722656 -0.171875 15.019531 0.265625 13.125 0.265625 C 11.195312 0.265625 9.46875 -0.171875 7.9375 -1.046875 C 6.414062 -1.921875 5.222656 -3.132812 4.359375 -4.6875 C 3.492188 -6.238281 3.0625 -7.988281 3.0625 -9.9375 L 3.0625 -24.125 C 3.0625 -24.644531 3.234375 -25.070312 3.578125 -25.40625 C 3.929688 -25.738281 4.378906 -25.90625 4.921875 -25.90625 C 5.378906 -25.90625 5.785156 -25.734375 6.140625 -25.390625 C 6.503906 -25.046875 6.6875 -24.625 6.6875 -24.125 L 6.6875 -9.9375 C 6.6875 -8.65625 6.984375 -7.503906 7.578125 -6.484375 C 8.171875 -5.460938 8.957031 -4.664062 9.9375 -4.09375 C 10.925781 -3.53125 11.988281 -3.25 13.125 -3.25 C 14.300781 -3.25 15.394531 -3.53125 16.40625 -4.09375 C 17.414062 -4.664062 18.222656 -5.460938 18.828125 -6.484375 C 19.429688 -7.503906 19.734375 -8.65625 19.734375 -9.9375 L 19.734375 -24.125 C 19.734375 -24.644531 19.878906 -25.070312 20.171875 -25.40625 C 20.472656 -25.738281 20.878906 -25.90625 21.390625 -25.90625 Z M 21.390625 -25.90625 "/></g></g></g><g fill="#ffffff" fill-opacity="1"><g transform="translate(184.349259, 46.414402)"><g><path d="M 10.90625 0.375 C 9.101562 0.375 7.507812 0.125 6.125 -0.375 C 4.75 -0.882812 3.4375 -1.707031 2.1875 -2.84375 C 1.664062 -3.289062 1.40625 -3.796875 1.40625 -4.359375 C 1.40625 -4.804688 1.578125 -5.207031 1.921875 -5.5625 C 2.265625 -5.914062 2.671875 -6.09375 3.140625 -6.09375 C 3.554688 -6.09375 3.914062 -5.957031 4.21875 -5.6875 C 5.195312 -4.78125 6.207031 -4.109375 7.25 -3.671875 C 8.300781 -3.242188 9.492188 -3.03125 10.828125 -3.03125 C 12.378906 -3.03125 13.691406 -3.382812 14.765625 -4.09375 C 15.835938 -4.8125 16.375 -5.710938 16.375 -6.796875 C 16.34375 -8.078125 15.800781 -9.066406 14.75 -9.765625 C 13.707031 -10.472656 12.117188 -11.0625 9.984375 -11.53125 C 7.441406 -12.050781 5.484375 -12.898438 4.109375 -14.078125 C 2.742188 -15.265625 2.0625 -16.90625 2.0625 -19 C 2.0625 -20.445312 2.441406 -21.71875 3.203125 -22.8125 C 3.972656 -23.914062 5.035156 -24.757812 6.390625 -25.34375 C 7.742188 -25.9375 9.269531 -26.234375 10.96875 -26.234375 C 12.5 -26.234375 13.941406 -25.988281 15.296875 -25.5 C 16.648438 -25.007812 17.75 -24.359375 18.59375 -23.546875 C 19.15625 -23.046875 19.4375 -22.515625 19.4375 -21.953125 C 19.4375 -21.503906 19.269531 -21.109375 18.9375 -20.765625 C 18.601562 -20.421875 18.203125 -20.25 17.734375 -20.25 C 17.390625 -20.25 17.109375 -20.347656 16.890625 -20.546875 C 16.242188 -21.179688 15.351562 -21.722656 14.21875 -22.171875 C 13.09375 -22.617188 12.007812 -22.84375 10.96875 -22.84375 C 9.320312 -22.84375 8.007812 -22.5 7.03125 -21.8125 C 6.0625 -21.132812 5.578125 -20.242188 5.578125 -19.140625 C 5.578125 -17.929688 6.0625 -17.003906 7.03125 -16.359375 C 8.007812 -15.722656 9.457031 -15.1875 11.375 -14.75 C 13.300781 -14.320312 14.875 -13.828125 16.09375 -13.265625 C 17.3125 -12.703125 18.253906 -11.914062 18.921875 -10.90625 C 19.585938 -9.894531 19.921875 -8.578125 19.921875 -6.953125 C 19.921875 -5.515625 19.519531 -4.242188 18.71875 -3.140625 C 17.914062 -2.035156 16.820312 -1.171875 15.4375 -0.546875 C 14.0625 0.0664062 12.550781 0.375 10.90625 0.375 Z M 10.90625 0.375 "/></g></g></g><g fill="#ffffff" fill-opacity="1"><g transform="translate(205.852748, 46.414402)"><g/></g></g><g fill="#ffffff" fill-opacity="1"><g transform="translate(216.087223, 46.414402)"><g><path d="M 17.703125 -3.40625 C 18.222656 -3.40625 18.644531 -3.226562 18.96875 -2.875 C 19.300781 -2.53125 19.46875 -2.125 19.46875 -1.65625 C 19.46875 -1.164062 19.300781 -0.765625 18.96875 -0.453125 C 18.644531 -0.148438 18.222656 0 17.703125 0 L 4.84375 0 C 4.351562 0 3.929688 -0.171875 3.578125 -0.515625 C 3.234375 -0.859375 3.0625 -1.28125 3.0625 -1.78125 L 3.0625 -24.09375 C 3.0625 -24.582031 3.234375 -25 3.578125 -25.34375 C 3.929688 -25.695312 4.351562 -25.875 4.84375 -25.875 L 17.703125 -25.875 C 18.222656 -25.875 18.644531 -25.710938 18.96875 -25.390625 C 19.300781 -25.066406 19.46875 -24.644531 19.46875 -24.125 C 19.46875 -23.632812 19.300781 -23.234375 18.96875 -22.921875 C 18.644531 -22.617188 18.222656 -22.46875 17.703125 -22.46875 L 6.71875 -22.46875 L 6.71875 -14.921875 L 16.03125 -14.921875 C 16.550781 -14.921875 16.976562 -14.757812 17.3125 -14.4375 C 17.644531 -14.125 17.8125 -13.722656 17.8125 -13.234375 C 17.8125 -12.710938 17.644531 -12.300781 17.3125 -12 C 16.976562 -11.707031 16.550781 -11.5625 16.03125 -11.5625 L 6.71875 -11.5625 L 6.71875 -3.40625 Z M 17.703125 -3.40625 "/></g></g></g><g fill="#ffffff" fill-opacity="1"><g transform="translate(237.147336, 46.414402)"><g><path d="M 25.53125 -25.90625 C 26.03125 -25.882812 26.453125 -25.707031 26.796875 -25.375 C 27.140625 -25.039062 27.3125 -24.625 27.3125 -24.125 L 27.3125 -1.78125 C 27.3125 -1.28125 27.144531 -0.859375 26.8125 -0.515625 C 26.476562 -0.171875 26.039062 0 25.5 0 C 24.957031 0 24.515625 -0.164062 24.171875 -0.5 C 23.828125 -0.832031 23.65625 -1.257812 23.65625 -1.78125 L 23.65625 -18.890625 L 16.484375 -8.015625 C 16.304688 -7.796875 16.085938 -7.613281 15.828125 -7.46875 C 15.578125 -7.320312 15.316406 -7.257812 15.046875 -7.28125 C 14.796875 -7.257812 14.539062 -7.320312 14.28125 -7.46875 C 14.019531 -7.613281 13.804688 -7.796875 13.640625 -8.015625 L 6.4375 -19.21875 L 6.4375 -1.78125 C 6.4375 -1.257812 6.28125 -0.832031 5.96875 -0.5 C 5.65625 -0.164062 5.242188 0 4.734375 0 C 4.234375 0 3.828125 -0.164062 3.515625 -0.5 C 3.210938 -0.832031 3.0625 -1.257812 3.0625 -1.78125 L 3.0625 -24.125 C 3.0625 -24.59375 3.234375 -25.003906 3.578125 -25.359375 C 3.929688 -25.722656 4.363281 -25.90625 4.875 -25.90625 C 5.175781 -25.90625 5.46875 -25.828125 5.75 -25.671875 C 6.03125 -25.523438 6.257812 -25.332031 6.4375 -25.09375 L 15.1875 -11.828125 L 24.0625 -25.09375 C 24.445312 -25.632812 24.9375 -25.90625 25.53125 -25.90625 Z M 25.53125 -25.90625 "/></g></g></g><g fill="#ffffff" fill-opacity="1"><g transform="translate(267.51824, 46.414402)"><g><path d="M 13.40625 -25.875 C 14.71875 -25.875 15.925781 -25.519531 17.03125 -24.8125 C 18.144531 -24.113281 19.023438 -23.160156 19.671875 -21.953125 C 20.328125 -20.742188 20.65625 -19.410156 20.65625 -17.953125 C 20.65625 -16.503906 20.328125 -15.160156 19.671875 -13.921875 C 19.023438 -12.691406 18.144531 -11.71875 17.03125 -11 C 15.925781 -10.289062 14.71875 -9.9375 13.40625 -9.9375 L 6.46875 -9.9375 L 6.46875 -1.78125 C 6.46875 -1.28125 6.304688 -0.859375 5.984375 -0.515625 C 5.660156 -0.171875 5.253906 0 4.765625 0 C 4.242188 0 3.828125 -0.164062 3.515625 -0.5 C 3.210938 -0.832031 3.0625 -1.257812 3.0625 -1.78125 L 3.0625 -24.09375 C 3.0625 -24.582031 3.234375 -25 3.578125 -25.34375 C 3.929688 -25.695312 4.351562 -25.875 4.84375 -25.875 Z M 13.40625 -13.296875 C 14.070312 -13.296875 14.6875 -13.507812 15.25 -13.9375 C 15.820312 -14.375 16.273438 -14.945312 16.609375 -15.65625 C 16.941406 -16.375 17.109375 -17.140625 17.109375 -17.953125 C 17.109375 -19.210938 16.742188 -20.28125 16.015625 -21.15625 C 15.285156 -22.03125 14.414062 -22.46875 13.40625 -22.46875 L 6.46875 -22.46875 L 6.46875 -13.296875 Z M 13.40625 -13.296875 "/></g></g></g><g fill="#ffffff" fill-opacity="1"><g transform="translate(289.686785, 46.414402)"><g><path d="M 22.765625 -2.953125 C 23.003906 -2.785156 23.195312 -2.570312 23.34375 -2.3125 C 23.5 -2.050781 23.578125 -1.785156 23.578125 -1.515625 C 23.578125 -0.992188 23.410156 -0.609375 23.078125 -0.359375 C 22.742188 -0.117188 22.34375 0 21.875 0 C 21.40625 0 21.007812 -0.0976562 20.6875 -0.296875 C 19.945312 -0.710938 19.34375 -1.390625 18.875 -2.328125 C 18.414062 -3.265625 18.1875 -4.644531 18.1875 -6.46875 C 18.1875 -7.695312 17.816406 -8.609375 17.078125 -9.203125 C 16.335938 -9.796875 15.375 -10.09375 14.1875 -10.09375 L 6.71875 -10.09375 L 6.71875 -1.78125 C 6.71875 -1.257812 6.570312 -0.832031 6.28125 -0.5 C 5.988281 -0.164062 5.609375 0 5.140625 0 C 4.566406 0 4.078125 -0.171875 3.671875 -0.515625 C 3.265625 -0.859375 3.0625 -1.28125 3.0625 -1.78125 L 3.0625 -24.09375 C 3.0625 -24.582031 3.234375 -25 3.578125 -25.34375 C 3.929688 -25.695312 4.351562 -25.875 4.84375 -25.875 L 15.21875 -25.875 C 16.550781 -25.875 17.769531 -25.546875 18.875 -24.890625 C 19.988281 -24.234375 20.878906 -23.332031 21.546875 -22.1875 C 22.210938 -21.039062 22.546875 -19.753906 22.546875 -18.328125 C 22.546875 -16.953125 22.175781 -15.664062 21.4375 -14.46875 C 20.695312 -13.269531 19.75 -12.375 18.59375 -11.78125 C 19.5 -11.320312 20.21875 -10.671875 20.75 -9.828125 C 21.28125 -8.992188 21.570312 -8.019531 21.625 -6.90625 C 21.71875 -5.5 21.828125 -4.539062 21.953125 -4.03125 C 22.078125 -3.53125 22.347656 -3.171875 22.765625 -2.953125 Z M 15.15625 -13.15625 C 15.769531 -13.207031 16.351562 -13.453125 16.90625 -13.890625 C 17.457031 -14.335938 17.90625 -14.9375 18.25 -15.6875 C 18.59375 -16.4375 18.765625 -17.28125 18.765625 -18.21875 C 18.765625 -19.394531 18.398438 -20.394531 17.671875 -21.21875 C 16.953125 -22.050781 16.078125 -22.46875 15.046875 -22.46875 L 6.71875 -22.46875 L 6.71875 -13.15625 Z M 15.15625 -13.15625 "/></g></g></g><g fill="#ffffff" fill-opacity="1"><g transform="translate(314.81113, 46.414402)"><g><path d="M 17.703125 -3.40625 C 18.222656 -3.40625 18.644531 -3.226562 18.96875 -2.875 C 19.300781 -2.53125 19.46875 -2.125 19.46875 -1.65625 C 19.46875 -1.164062 19.300781 -0.765625 18.96875 -0.453125 C 18.644531 -0.148438 18.222656 0 17.703125 0 L 4.84375 0 C 4.351562 0 3.929688 -0.171875 3.578125 -0.515625 C 3.234375 -0.859375 3.0625 -1.28125 3.0625 -1.78125 L 3.0625 -24.09375 C 3.0625 -24.582031 3.234375 -25 3.578125 -25.34375 C 3.929688 -25.695312 4.351562 -25.875 4.84375 -25.875 L 17.703125 -25.875 C 18.222656 -25.875 18.644531 -25.710938 18.96875 -25.390625 C 19.300781 -25.066406 19.46875 -24.644531 19.46875 -24.125 C 19.46875 -23.632812 19.300781 -23.234375 18.96875 -22.921875 C 18.644531 -22.617188 18.222656 -22.46875 17.703125 -22.46875 L 6.71875 -22.46875 L 6.71875 -14.921875 L 16.03125 -14.921875 C 16.550781 -14.921875 16.976562 -14.757812 17.3125 -14.4375 C 17.644531 -14.125 17.8125 -13.722656 17.8125 -13.234375 C 17.8125 -12.710938 17.644531 -12.300781 17.3125 -12 C 16.976562 -11.707031 16.550781 -11.5625 16.03125 -11.5625 L 6.71875 -11.5625 L 6.71875 -3.40625 Z M 17.703125 -3.40625 "/></g></g></g><g fill="#ffffff" fill-opacity="1"><g transform="translate(335.871257, 46.414402)"><g><path d="M 10.90625 0.375 C 9.101562 0.375 7.507812 0.125 6.125 -0.375 C 4.75 -0.882812 3.4375 -1.707031 2.1875 -2.84375 C 1.664062 -3.289062 1.40625 -3.796875 1.40625 -4.359375 C 1.40625 -4.804688 1.578125 -5.207031 1.921875 -5.5625 C 2.265625 -5.914062 2.671875 -6.09375 3.140625 -6.09375 C 3.554688 -6.09375 3.914062 -5.957031 4.21875 -5.6875 C 5.195312 -4.78125 6.207031 -4.109375 7.25 -3.671875 C 8.300781 -3.242188 9.492188 -3.03125 10.828125 -3.03125 C 12.378906 -3.03125 13.691406 -3.382812 14.765625 -4.09375 C 15.835938 -4.8125 16.375 -5.710938 16.375 -6.796875 C 16.34375 -8.078125 15.800781 -9.066406 14.75 -9.765625 C 13.707031 -10.472656 12.117188 -11.0625 9.984375 -11.53125 C 7.441406 -12.050781 5.484375 -12.898438 4.109375 -14.078125 C 2.742188 -15.265625 2.0625 -16.90625 2.0625 -19 C 2.0625 -20.445312 2.441406 -21.71875 3.203125 -22.8125 C 3.972656 -23.914062 5.035156 -24.757812 6.390625 -25.34375 C 7.742188 -25.9375 9.269531 -26.234375 10.96875 -26.234375 C 12.5 -26.234375 13.941406 -25.988281 15.296875 -25.5 C 16.648438 -25.007812 17.75 -24.359375 18.59375 -23.546875 C 19.15625 -23.046875 19.4375 -22.515625 19.4375 -21.953125 C 19.4375 -21.503906 19.269531 -21.109375 18.9375 -20.765625 C 18.601562 -20.421875 18.203125 -20.25 17.734375 -20.25 C 17.390625 -20.25 17.109375 -20.347656 16.890625 -20.546875 C 16.242188 -21.179688 15.351562 -21.722656 14.21875 -22.171875 C 13.09375 -22.617188 12.007812 -22.84375 10.96875 -22.84375 C 9.320312 -22.84375 8.007812 -22.5 7.03125 -21.8125 C 6.0625 -21.132812 5.578125 -20.242188 5.578125 -19.140625 C 5.578125 -17.929688 6.0625 -17.003906 7.03125 -16.359375 C 8.007812 -15.722656 9.457031 -15.1875 11.375 -14.75 C 13.300781 -14.320312 14.875 -13.828125 16.09375 -13.265625 C 17.3125 -12.703125 18.253906 -11.914062 18.921875 -10.90625 C 19.585938 -9.894531 19.921875 -8.578125 19.921875 -6.953125 C 19.921875 -5.515625 19.519531 -4.242188 18.71875 -3.140625 C 17.914062 -2.035156 16.820312 -1.171875 15.4375 -0.546875 C 14.0625 0.0664062 12.550781 0.375 10.90625 0.375 Z M 10.90625 0.375 "/></g></g></g><g fill="#ffffff" fill-opacity="1"><g transform="translate(357.374746, 46.414402)"><g><path d="M 22.953125 -2.296875 C 23.023438 -2.066406 23.0625 -1.832031 23.0625 -1.59375 C 23.0625 -1.09375 22.894531 -0.679688 22.5625 -0.359375 C 22.226562 -0.046875 21.835938 0.109375 21.390625 0.109375 C 21.046875 0.109375 20.734375 0.00390625 20.453125 -0.203125 C 20.171875 -0.410156 19.941406 -0.703125 19.765625 -1.078125 L 17.484375 -6.5 L 6.0625 -6.5 L 3.8125 -1.03125 C 3.6875 -0.664062 3.476562 -0.382812 3.1875 -0.1875 C 2.90625 0.0078125 2.59375 0.109375 2.25 0.109375 C 1.738281 0.109375 1.347656 -0.0234375 1.078125 -0.296875 C 0.804688 -0.566406 0.671875 -0.9375 0.671875 -1.40625 C 0.671875 -1.5 0.691406 -1.695312 0.734375 -2 L 10.15625 -24.828125 C 10.332031 -25.222656 10.570312 -25.523438 10.875 -25.734375 C 11.1875 -25.941406 11.539062 -26.023438 11.9375 -25.984375 C 12.300781 -25.984375 12.628906 -25.882812 12.921875 -25.6875 C 13.222656 -25.488281 13.4375 -25.203125 13.5625 -24.828125 Z M 7.46875 -9.859375 L 16.078125 -9.859375 L 11.75 -20.21875 Z M 7.46875 -9.859375 "/></g></g></g><g fill="#ffffff" fill-opacity="1"><g transform="translate(381.095099, 46.414402)"><g><path d="M 10.90625 0.375 C 9.101562 0.375 7.507812 0.125 6.125 -0.375 C 4.75 -0.882812 3.4375 -1.707031 2.1875 -2.84375 C 1.664062 -3.289062 1.40625 -3.796875 1.40625 -4.359375 C 1.40625 -4.804688 1.578125 -5.207031 1.921875 -5.5625 C 2.265625 -5.914062 2.671875 -6.09375 3.140625 -6.09375 C 3.554688 -6.09375 3.914062 -5.957031 4.21875 -5.6875 C 5.195312 -4.78125 6.207031 -4.109375 7.25 -3.671875 C 8.300781 -3.242188 9.492188 -3.03125 10.828125 -3.03125 C 12.378906 -3.03125 13.691406 -3.382812 14.765625 -4.09375 C 15.835938 -4.8125 16.375 -5.710938 16.375 -6.796875 C 16.34375 -8.078125 15.800781 -9.066406 14.75 -9.765625 C 13.707031 -10.472656 12.117188 -11.0625 9.984375 -11.53125 C 7.441406 -12.050781 5.484375 -12.898438 4.109375 -14.078125 C 2.742188 -15.265625 2.0625 -16.90625 2.0625 -19 C 2.0625 -20.445312 2.441406 -21.71875 3.203125 -22.8125 C 3.972656 -23.914062 5.035156 -24.757812 6.390625 -25.34375 C 7.742188 -25.9375 9.269531 -26.234375 10.96875 -26.234375 C 12.5 -26.234375 13.941406 -25.988281 15.296875 -25.5 C 16.648438 -25.007812 17.75 -24.359375 18.59375 -23.546875 C 19.15625 -23.046875 19.4375 -22.515625 19.4375 -21.953125 C 19.4375 -21.503906 19.269531 -21.109375 18.9375 -20.765625 C 18.601562 -20.421875 18.203125 -20.25 17.734375 -20.25 C 17.390625 -20.25 17.109375 -20.347656 16.890625 -20.546875 C 16.242188 -21.179688 15.351562 -21.722656 14.21875 -22.171875 C 13.09375 -22.617188 12.007812 -22.84375 10.96875 -22.84375 C 9.320312 -22.84375 8.007812 -22.5 7.03125 -21.8125 C 6.0625 -21.132812 5.578125 -20.242188 5.578125 -19.140625 C 5.578125 -17.929688 6.0625 -17.003906 7.03125 -16.359375 C 8.007812 -15.722656 9.457031 -15.1875 11.375 -14.75 C 13.300781 -14.320312 14.875 -13.828125 16.09375 -13.265625 C 17.3125 -12.703125 18.253906 -11.914062 18.921875 -10.90625 C 19.585938 -9.894531 19.921875 -8.578125 19.921875 -6.953125 C 19.921875 -5.515625 19.519531 -4.242188 18.71875 -3.140625 C 17.914062 -2.035156 16.820312 -1.171875 15.4375 -0.546875 C 14.0625 0.0664062 12.550781 0.375 10.90625 0.375 Z M 10.90625 0.375 "/></g></g></g><g clip-path="url(#f88970d29f)"><path fill="#ffffff" d="M 105.855469 2.136719 C 103.171875 2.136719 100.996094 4.363281 100.996094 7.109375 C 100.996094 10.835938 105.855469 16.34375 105.855469 16.34375 C 105.855469 16.34375 110.714844 10.835938 110.714844 7.109375 C 110.714844 4.363281 108.539062 2.136719 105.855469 2.136719 Z M 105.855469 8.882812 C 104.898438 8.882812 104.121094 8.089844 104.121094 7.109375 C 104.121094 6.128906 104.898438 5.332031 105.855469 5.332031 C 106.8125 5.332031 107.589844 6.128906 107.589844 7.109375 C 107.589844 8.089844 106.8125 8.882812 105.855469 8.882812 Z M 105.855469 8.882812 " fill-opacity="1" fill-rule="nonzero"/></g></svg>