<svg xmlns="http://www.w3.org/2000/svg" xmlns:xlink="http://www.w3.org/1999/xlink" width="446" zoomAndPan="magnify" viewBox="0 0 334.5 90.749999" height="121" preserveAspectRatio="xMidYMid meet" version="1.0"><defs><g/><clipPath id="52adf83ec9"><path d="M 18 81 L 31 81 L 31 90.472656 L 18 90.472656 Z M 18 81 " clip-rule="nonzero"/></clipPath><clipPath id="f1672a0580"><path d="M 67 81 L 80 81 L 80 90.472656 L 67 90.472656 Z M 67 81 " clip-rule="nonzero"/></clipPath><clipPath id="6068929711"><path d="M 0.210938 22 L 7 22 L 7 45 L 0.210938 45 Z M 0.210938 22 " clip-rule="nonzero"/></clipPath><clipPath id="c29a42a50f"><path d="M 90 22 L 97.191406 22 L 97.191406 45 L 90 45 Z M 90 22 " clip-rule="nonzero"/></clipPath><clipPath id="27bc8e2e72"><path d="M 28.683594 54.78125 L 69.660156 54.78125 L 69.660156 71.171875 L 28.683594 71.171875 Z M 28.683594 54.78125 " clip-rule="nonzero"/></clipPath><clipPath id="cb3313fd0f"><path d="M 36.84375 54.78125 L 61.492188 54.78125 C 63.65625 54.78125 65.734375 55.640625 67.265625 57.171875 C 68.796875 58.703125 69.65625 60.777344 69.65625 62.941406 C 69.65625 65.109375 68.796875 67.183594 67.265625 68.714844 C 65.734375 70.246094 63.65625 71.105469 61.492188 71.105469 L 36.84375 71.105469 C 34.679688 71.105469 32.605469 70.246094 31.074219 68.714844 C 29.542969 67.183594 28.683594 65.109375 28.683594 62.941406 C 28.683594 60.777344 29.542969 58.703125 31.074219 57.171875 C 32.605469 55.640625 34.679688 54.78125 36.84375 54.78125 " clip-rule="nonzero"/></clipPath><clipPath id="1c9201e7f3"><path d="M 29.640625 62.941406 L 68.617188 62.941406 L 68.617188 73.152344 L 29.640625 73.152344 Z M 29.640625 62.941406 " clip-rule="nonzero"/></clipPath><clipPath id="45aafb4535"><path d="M 42.460938 33.28125 L 78 33.28125 L 78 46.367188 L 42.460938 46.367188 Z M 42.460938 33.28125 " clip-rule="nonzero"/></clipPath><clipPath id="404ee4f000"><path d="M 48.960938 33.28125 L 71.558594 33.28125 C 73.28125 33.28125 74.9375 33.964844 76.15625 35.183594 C 77.375 36.402344 78.058594 38.058594 78.058594 39.78125 C 78.058594 41.503906 77.375 43.160156 76.15625 44.378906 C 74.9375 45.597656 73.28125 46.28125 71.558594 46.28125 L 48.960938 46.28125 C 47.238281 46.28125 45.585938 45.597656 44.367188 44.378906 C 43.148438 43.160156 42.460938 41.503906 42.460938 39.78125 C 42.460938 38.058594 43.148438 36.402344 44.367188 35.183594 C 45.585938 33.964844 47.238281 33.28125 48.960938 33.28125 " clip-rule="nonzero"/></clipPath><clipPath id="a8c5abc31d"><path d="M 26.457031 11.398438 L 71 11.398438 L 71 25 L 26.457031 25 Z M 26.457031 11.398438 " clip-rule="nonzero"/></clipPath><clipPath id="dd7b26d44d"><path d="M 45 38 L 52 38 L 52 43.878906 L 45 43.878906 Z M 45 38 " clip-rule="nonzero"/></clipPath><clipPath id="553d00f842"><path d="M 155.265625 0.363281 L 170.246094 0.363281 L 170.246094 22.085938 L 155.265625 22.085938 Z M 155.265625 0.363281 " clip-rule="nonzero"/></clipPath></defs><g clip-path="url(#52adf83ec9)"><path fill="#ffffff" d="M 18.242188 81.144531 L 18.242188 86.367188 C 18.242188 88.582031 20.046875 90.382812 22.273438 90.382812 L 26.300781 90.382812 C 28.527344 90.382812 30.332031 88.582031 30.332031 86.367188 L 30.332031 81.144531 Z M 18.242188 81.144531 " fill-opacity="1" fill-rule="nonzero"/></g><g clip-path="url(#f1672a0580)"><path fill="#ffffff" d="M 67.105469 81.144531 L 67.105469 86.367188 C 67.105469 88.582031 68.910156 90.382812 71.136719 90.382812 L 75.164062 90.382812 C 77.390625 90.382812 79.195312 88.582031 79.195312 86.367188 L 79.195312 81.144531 Z M 67.105469 81.144531 " fill-opacity="1" fill-rule="nonzero"/></g><path fill="#ffffff" d="M 73.726562 0.0390625 L 23.714844 0.0390625 C 15.824219 0.0390625 9.425781 6.414062 9.425781 14.277344 L 9.425781 72.992188 C 9.425781 75.867188 11.769531 78.199219 14.65625 78.199219 L 82.785156 78.199219 C 85.667969 78.199219 88.011719 75.867188 88.011719 72.992188 L 88.011719 14.277344 C 88.011719 6.414062 81.617188 0.0390625 73.726562 0.0390625 Z M 22.1875 68.429688 C 19.148438 68.429688 16.679688 65.972656 16.679688 62.941406 C 16.679688 59.910156 19.148438 57.453125 22.1875 57.453125 C 25.230469 57.453125 27.695312 59.910156 27.695312 62.941406 C 27.695312 65.972656 25.230469 68.429688 22.1875 68.429688 Z M 65.824219 68.183594 L 33.582031 68.183594 C 32.53125 68.183594 31.683594 67.335938 31.683594 66.289062 C 31.683594 65.242188 32.53125 64.394531 33.582031 64.394531 L 65.824219 64.394531 C 66.871094 64.394531 67.722656 65.242188 67.722656 66.289062 C 67.722656 67.335938 66.871094 68.183594 65.824219 68.183594 Z M 65.824219 61.488281 L 33.582031 61.488281 C 32.53125 61.488281 31.683594 60.640625 31.683594 59.59375 C 31.683594 58.550781 32.53125 57.703125 33.582031 57.703125 L 65.824219 57.703125 C 66.871094 57.703125 67.722656 58.550781 67.722656 59.59375 C 67.722656 60.640625 66.871094 61.488281 65.824219 61.488281 Z M 75.25 68.429688 C 72.207031 68.429688 69.742188 65.972656 69.742188 62.941406 C 69.742188 59.910156 72.207031 57.453125 75.25 57.453125 C 78.292969 57.453125 80.757812 59.910156 80.757812 62.941406 C 80.757812 65.972656 78.292969 68.429688 75.25 68.429688 Z M 80.757812 37.613281 C 80.757812 42.949219 76.414062 47.277344 71.058594 47.277344 L 26.378906 47.277344 C 21.023438 47.277344 16.679688 42.949219 16.679688 37.613281 L 16.679688 16.523438 C 16.679688 11.1875 21.023438 6.859375 26.378906 6.859375 L 71.058594 6.859375 C 76.414062 6.859375 80.757812 11.1875 80.757812 16.523438 Z M 80.757812 37.613281 " fill-opacity="1" fill-rule="nonzero"/><path fill="#ffffff" d="M 57.238281 44.335938 C 57.34375 41.363281 59.789062 38.984375 62.800781 38.984375 C 65.808594 38.984375 68.253906 41.363281 68.359375 44.335938 L 72.398438 44.335938 C 72.292969 39.144531 68.035156 34.964844 62.800781 34.964844 C 57.5625 34.964844 53.308594 39.144531 53.199219 44.335938 Z M 57.238281 44.335938 " fill-opacity="1" fill-rule="nonzero"/><g clip-path="url(#6068929711)"><path fill="#ffffff" d="M 6.808594 41.054688 C 6.808594 42.867188 5.335938 44.335938 3.515625 44.335938 C 1.699219 44.335938 0.226562 42.867188 0.226562 41.054688 L 0.226562 26.199219 C 0.226562 24.386719 1.699219 22.917969 3.515625 22.917969 C 5.335938 22.917969 6.808594 24.386719 6.808594 26.199219 Z M 6.808594 41.054688 " fill-opacity="1" fill-rule="nonzero"/></g><g clip-path="url(#c29a42a50f)"><path fill="#ffffff" d="M 97.210938 41.054688 C 97.210938 42.867188 95.738281 44.335938 93.921875 44.335938 C 92.105469 44.335938 90.628906 42.867188 90.628906 41.054688 L 90.628906 26.199219 C 90.628906 24.386719 92.105469 22.917969 93.921875 22.917969 C 95.738281 22.917969 97.210938 24.386719 97.210938 26.199219 Z M 97.210938 41.054688 " fill-opacity="1" fill-rule="nonzero"/></g><g clip-path="url(#27bc8e2e72)"><g clip-path="url(#cb3313fd0f)"><path fill="#ffffff" d="M 28.683594 54.78125 L 69.660156 54.78125 L 69.660156 71.171875 L 28.683594 71.171875 Z M 28.683594 54.78125 " fill-opacity="1" fill-rule="nonzero"/></g></g><g clip-path="url(#1c9201e7f3)"><path fill="#0d6efd" d="M 30.265625 66.144531 C 30.277344 66.085938 30.289062 66.03125 30.304688 65.976562 L 30.351562 65.8125 C 30.378906 65.703125 30.425781 65.601562 30.460938 65.5 C 30.546875 65.304688 30.640625 65.121094 30.75 64.949219 C 30.867188 64.78125 30.984375 64.621094 31.125 64.476562 C 31.40625 64.191406 31.734375 63.953125 32.125 63.777344 L 32.195312 63.746094 L 32.273438 63.714844 C 32.324219 63.695312 32.375 63.675781 32.425781 63.65625 C 32.53125 63.628906 32.640625 63.585938 32.757812 63.558594 C 32.871094 63.53125 32.988281 63.507812 33.113281 63.484375 C 33.113281 63.484375 33.113281 63.484375 33.117188 63.484375 C 33.261719 63.460938 33.300781 63.265625 33.171875 63.195312 C 33.046875 63.128906 32.917969 63.074219 32.78125 63.03125 C 32.644531 62.992188 32.503906 62.972656 32.363281 62.957031 C 32.289062 62.945312 32.21875 62.949219 32.144531 62.949219 L 32.035156 62.949219 C 32 62.949219 31.964844 62.957031 31.929688 62.957031 C 31.34375 63.011719 30.777344 63.300781 30.359375 63.730469 C 30.152344 63.945312 29.984375 64.203125 29.859375 64.472656 C 29.734375 64.746094 29.664062 65.039062 29.640625 65.332031 C 29.636719 65.40625 29.640625 65.480469 29.640625 65.550781 C 29.640625 65.589844 29.640625 65.625 29.644531 65.660156 C 29.644531 65.695312 29.652344 65.730469 29.65625 65.769531 C 29.667969 65.839844 29.675781 65.910156 29.6875 65.980469 C 29.707031 66.050781 29.722656 66.117188 29.746094 66.1875 C 29.78125 66.292969 29.824219 66.402344 29.878906 66.5 C 29.957031 66.65625 30.1875 66.617188 30.210938 66.445312 C 30.226562 66.339844 30.242188 66.242188 30.265625 66.144531 Z M 68.042969 66.445312 C 68.066406 66.617188 68.296875 66.65625 68.375 66.5 C 68.429688 66.402344 68.472656 66.292969 68.507812 66.1875 C 68.53125 66.117188 68.546875 66.050781 68.566406 65.980469 C 68.578125 65.910156 68.585938 65.839844 68.597656 65.769531 C 68.601562 65.730469 68.609375 65.695312 68.609375 65.660156 C 68.613281 65.625 68.613281 65.589844 68.613281 65.550781 C 68.613281 65.480469 68.617188 65.40625 68.613281 65.332031 C 68.585938 65.039062 68.519531 64.746094 68.394531 64.472656 C 68.269531 64.203125 68.101562 63.945312 67.894531 63.730469 C 67.476562 63.300781 66.910156 63.011719 66.324219 62.957031 C 66.289062 62.957031 66.253906 62.949219 66.21875 62.949219 L 66.109375 62.949219 C 66.035156 62.949219 65.964844 62.945312 65.890625 62.957031 C 65.75 62.972656 65.609375 62.992188 65.472656 63.03125 C 65.335938 63.074219 65.207031 63.128906 65.082031 63.195312 C 64.953125 63.265625 64.992188 63.460938 65.136719 63.484375 C 65.140625 63.484375 65.140625 63.484375 65.140625 63.484375 C 65.265625 63.507812 65.382812 63.53125 65.496094 63.558594 C 65.613281 63.585938 65.722656 63.628906 65.828125 63.65625 C 65.878906 63.675781 65.929688 63.695312 65.980469 63.714844 L 66.058594 63.746094 L 66.128906 63.777344 C 66.519531 63.953125 66.847656 64.191406 67.128906 64.476562 C 67.269531 64.621094 67.386719 64.78125 67.503906 64.949219 C 67.613281 65.121094 67.707031 65.304688 67.792969 65.5 C 67.828125 65.601562 67.875 65.703125 67.902344 65.8125 L 67.949219 65.976562 C 67.964844 66.03125 67.976562 66.085938 67.988281 66.144531 C 68.011719 66.242188 68.027344 66.339844 68.042969 66.445312 Z M 48.984375 73.152344 C 45.894531 73.152344 42.824219 72.515625 39.859375 71.257812 C 36.988281 70.042969 34.210938 68.246094 31.605469 65.917969 C 31.40625 65.742188 31.390625 65.4375 31.566406 65.238281 C 31.742188 65.039062 32.042969 65.023438 32.242188 65.199219 C 37.359375 69.773438 43.148438 72.1875 48.984375 72.1875 C 54.867188 72.1875 60.703125 69.734375 65.855469 65.085938 C 66.050781 64.90625 66.351562 64.921875 66.527344 65.121094 C 66.707031 65.320312 66.6875 65.621094 66.492188 65.800781 C 63.871094 68.167969 61.074219 69.992188 58.183594 71.226562 C 55.195312 72.503906 52.101562 73.152344 48.984375 73.152344 " fill-opacity="1" fill-rule="nonzero"/></g><g clip-path="url(#45aafb4535)"><g clip-path="url(#404ee4f000)"><path fill="#0d6efd" d="M 42.460938 33.28125 L 77.976562 33.28125 L 77.976562 46.367188 L 42.460938 46.367188 Z M 42.460938 33.28125 " fill-opacity="1" fill-rule="nonzero"/></g></g><g clip-path="url(#a8c5abc31d)"><path fill="#ffffff" d="M 70.039062 20.242188 C 67.160156 17.359375 63.808594 15.128906 60.066406 13.613281 C 56.457031 12.144531 52.640625 11.402344 48.730469 11.402344 C 44.816406 11.402344 41.003906 12.144531 37.390625 13.613281 C 33.652344 15.128906 30.296875 17.359375 27.417969 20.242188 C 26.457031 21.203125 26.457031 22.765625 27.417969 23.730469 C 28.382812 24.691406 29.945312 24.691406 30.90625 23.730469 C 40.734375 13.894531 56.726562 13.894531 66.554688 23.730469 C 67.035156 24.210938 67.664062 24.453125 68.296875 24.453125 C 68.925781 24.453125 69.558594 24.210938 70.039062 23.730469 C 71.003906 22.765625 71.003906 21.203125 70.039062 20.242188 Z M 70.039062 20.242188 " fill-opacity="1" fill-rule="nonzero"/></g><path fill="#ffffff" d="M 48.722656 20.382812 C 43.015625 20.382812 37.648438 22.609375 33.605469 26.652344 C 32.695312 27.5625 32.695312 29.039062 33.605469 29.949219 C 34.515625 30.859375 35.992188 30.859375 36.902344 29.949219 C 43.421875 23.429688 54.027344 23.429688 60.542969 29.949219 C 61 30.40625 61.59375 30.632812 62.191406 30.632812 C 62.789062 30.632812 63.386719 30.40625 63.839844 29.949219 C 64.75 29.039062 64.75 27.5625 63.839844 26.652344 C 59.800781 22.609375 54.429688 20.382812 48.722656 20.382812 Z M 48.722656 20.382812 " fill-opacity="1" fill-rule="nonzero"/><path fill="#ffffff" d="M 48.722656 28.800781 C 45.253906 28.800781 41.988281 30.152344 39.535156 32.609375 C 38.628906 33.515625 38.628906 34.984375 39.535156 35.890625 C 40.4375 36.796875 41.90625 36.796875 42.8125 35.890625 C 46.070312 32.628906 51.375 32.628906 54.636719 35.890625 C 55.089844 36.34375 55.683594 36.570312 56.277344 36.570312 C 56.867188 36.570312 57.460938 36.34375 57.914062 35.890625 C 58.820312 34.984375 58.820312 33.515625 57.914062 32.609375 C 55.457031 30.152344 52.195312 28.800781 48.722656 28.800781 Z M 48.722656 28.800781 " fill-opacity="1" fill-rule="nonzero"/><g clip-path="url(#dd7b26d44d)"><path fill="#ffffff" d="M 51.546875 41.019531 C 51.546875 41.398438 51.472656 41.761719 51.328125 42.109375 C 51.183594 42.460938 50.976562 42.769531 50.710938 43.039062 C 50.441406 43.304688 50.132812 43.511719 49.785156 43.65625 C 49.433594 43.800781 49.070312 43.875 48.691406 43.875 C 48.3125 43.875 47.949219 43.800781 47.601562 43.65625 C 47.25 43.511719 46.941406 43.304688 46.675781 43.039062 C 46.40625 42.769531 46.199219 42.460938 46.054688 42.109375 C 45.910156 41.761719 45.839844 41.398438 45.839844 41.019531 C 45.839844 40.640625 45.910156 40.277344 46.054688 39.925781 C 46.199219 39.574219 46.40625 39.265625 46.675781 39 C 46.941406 38.730469 47.25 38.523438 47.601562 38.378906 C 47.949219 38.234375 48.3125 38.164062 48.691406 38.164062 C 49.070312 38.164062 49.433594 38.234375 49.785156 38.378906 C 50.132812 38.523438 50.441406 38.730469 50.710938 39 C 50.976562 39.265625 51.183594 39.574219 51.328125 39.925781 C 51.472656 40.277344 51.546875 40.640625 51.546875 41.019531 Z M 51.546875 41.019531 " fill-opacity="1" fill-rule="nonzero"/></g><g fill="#ffffff" fill-opacity="1"><g transform="translate(108.246207, 68.765031)"><g><path d="M 39.4375 -40.015625 C 40.195312 -39.972656 40.84375 -39.691406 41.375 -39.171875 C 41.914062 -38.660156 42.1875 -38.023438 42.1875 -37.265625 L 42.1875 -2.734375 C 42.1875 -1.972656 41.925781 -1.328125 41.40625 -0.796875 C 40.894531 -0.265625 40.222656 0 39.390625 0 C 38.546875 0 37.859375 -0.253906 37.328125 -0.765625 C 36.796875 -1.285156 36.53125 -1.941406 36.53125 -2.734375 L 36.53125 -29.171875 L 25.453125 -12.390625 C 25.191406 -12.046875 24.859375 -11.757812 24.453125 -11.53125 C 24.054688 -11.300781 23.648438 -11.207031 23.234375 -11.25 C 22.847656 -11.207031 22.457031 -11.300781 22.0625 -11.53125 C 21.664062 -11.757812 21.332031 -12.046875 21.0625 -12.390625 L 9.9375 -29.6875 L 9.9375 -2.734375 C 9.9375 -1.941406 9.695312 -1.285156 9.21875 -0.765625 C 8.738281 -0.253906 8.101562 0 7.3125 0 C 6.550781 0 5.929688 -0.253906 5.453125 -0.765625 C 4.972656 -1.285156 4.734375 -1.941406 4.734375 -2.734375 L 4.734375 -37.265625 C 4.734375 -37.992188 5 -38.632812 5.53125 -39.1875 C 6.0625 -39.738281 6.726562 -40.015625 7.53125 -40.015625 C 7.988281 -40.015625 8.4375 -39.898438 8.875 -39.671875 C 9.3125 -39.441406 9.664062 -39.132812 9.9375 -38.75 L 23.453125 -18.265625 L 37.15625 -38.75 C 37.769531 -39.59375 38.53125 -40.015625 39.4375 -40.015625 Z M 39.4375 -40.015625 "/></g></g></g><g fill="#ffffff" fill-opacity="1"><g transform="translate(155.16282, 68.765031)"><g><path d="M 10.390625 -2.796875 C 10.390625 -1.992188 10.101562 -1.328125 9.53125 -0.796875 C 8.957031 -0.265625 8.289062 0 7.53125 0 C 6.695312 0 6.019531 -0.265625 5.5 -0.796875 C 4.988281 -1.328125 4.734375 -1.992188 4.734375 -2.796875 L 4.734375 -37.21875 C 4.734375 -37.976562 5 -38.625 5.53125 -39.15625 C 6.0625 -39.6875 6.75 -39.953125 7.59375 -39.953125 C 8.351562 -39.953125 9.007812 -39.6875 9.5625 -39.15625 C 10.113281 -38.625 10.390625 -37.976562 10.390625 -37.21875 Z M 10.390625 -2.796875 "/></g></g></g><g fill="#ffffff" fill-opacity="1"><g transform="translate(170.288006, 68.765031)"><g><path d="M 33.328125 -4.109375 C 33.671875 -3.648438 33.84375 -3.097656 33.84375 -2.453125 C 33.84375 -1.648438 33.566406 -1 33.015625 -0.5 C 32.460938 -0.0078125 31.847656 0.234375 31.171875 0.234375 C 30.210938 0.234375 29.46875 -0.144531 28.9375 -0.90625 L 17.859375 -15.75 L 7.015625 -0.96875 C 6.453125 -0.164062 5.710938 0.234375 4.796875 0.234375 C 4.109375 0.234375 3.523438 -0.00390625 3.046875 -0.484375 C 2.578125 -0.960938 2.34375 -1.503906 2.34375 -2.109375 C 2.34375 -2.753906 2.570312 -3.382812 3.03125 -4 L 14.71875 -19.921875 L 2.96875 -35.734375 C 2.582031 -36.222656 2.390625 -36.773438 2.390625 -37.390625 C 2.390625 -38.148438 2.664062 -38.796875 3.21875 -39.328125 C 3.769531 -39.859375 4.410156 -40.125 5.140625 -40.125 C 5.554688 -40.125 5.960938 -40.03125 6.359375 -39.84375 C 6.765625 -39.65625 7.097656 -39.367188 7.359375 -38.984375 L 18.328125 -24.265625 L 29.171875 -38.8125 C 29.816406 -39.644531 30.535156 -40.0625 31.328125 -40.0625 C 32.015625 -40.0625 32.613281 -39.804688 33.125 -39.296875 C 33.644531 -38.785156 33.90625 -38.207031 33.90625 -37.5625 C 33.90625 -36.988281 33.710938 -36.4375 33.328125 -35.90625 L 21.46875 -20.03125 Z M 33.328125 -4.109375 "/></g></g></g><g fill="#ffffff" fill-opacity="1"><g transform="translate(206.474293, 68.765031)"><g><path d="M 27.625 -21.796875 C 29.71875 -21.078125 31.4375 -19.890625 32.78125 -18.234375 C 34.132812 -16.578125 34.8125 -14.421875 34.8125 -11.765625 C 34.8125 -7.535156 33.582031 -4.515625 31.125 -2.703125 C 28.675781 -0.898438 25.679688 0 22.140625 0 L 7.484375 0 C 6.710938 0 6.0625 -0.265625 5.53125 -0.796875 C 5 -1.328125 4.734375 -1.972656 4.734375 -2.734375 L 4.734375 -37.21875 C 4.734375 -37.976562 5 -38.625 5.53125 -39.15625 C 6.0625 -39.6875 6.710938 -39.953125 7.484375 -39.953125 L 22.140625 -39.953125 C 25.609375 -39.953125 28.242188 -39.09375 30.046875 -37.375 C 31.859375 -35.664062 32.765625 -33.195312 32.765625 -29.96875 C 32.765625 -28.132812 32.328125 -26.503906 31.453125 -25.078125 C 30.578125 -23.660156 29.300781 -22.566406 27.625 -21.796875 Z M 26.890625 -29.109375 C 26.890625 -30.898438 26.398438 -32.257812 25.421875 -33.1875 C 24.453125 -34.125 23.09375 -34.59375 21.34375 -34.59375 L 10.5625 -34.59375 L 10.5625 -23.453125 L 21.46875 -23.453125 C 23.019531 -23.492188 24.3125 -24 25.34375 -24.96875 C 26.375 -25.9375 26.890625 -27.316406 26.890625 -29.109375 Z M 22.09375 -5.25 C 24.1875 -5.25 25.859375 -5.789062 27.109375 -6.875 C 28.367188 -7.957031 29 -9.585938 29 -11.765625 C 29 -15.984375 26.597656 -18.09375 21.796875 -18.09375 L 10.5625 -18.09375 L 10.5625 -5.25 Z M 22.09375 -5.25 "/></g></g></g><g fill="#ffffff" fill-opacity="1"><g transform="translate(243.745027, 68.765031)"><g><path d="M 33.046875 -40.015625 C 33.847656 -40.015625 34.484375 -39.753906 34.953125 -39.234375 C 35.429688 -38.722656 35.671875 -38.066406 35.671875 -37.265625 L 35.671875 -15.359375 C 35.671875 -12.347656 35.003906 -9.644531 33.671875 -7.25 C 32.335938 -4.851562 30.5 -2.976562 28.15625 -1.625 C 25.820312 -0.269531 23.191406 0.40625 20.265625 0.40625 C 17.296875 0.40625 14.628906 -0.269531 12.265625 -1.625 C 9.910156 -2.976562 8.066406 -4.851562 6.734375 -7.25 C 5.398438 -9.644531 4.734375 -12.347656 4.734375 -15.359375 L 4.734375 -37.265625 C 4.734375 -38.066406 5 -38.722656 5.53125 -39.234375 C 6.0625 -39.753906 6.75 -40.015625 7.59375 -40.015625 C 8.3125 -40.015625 8.945312 -39.742188 9.5 -39.203125 C 10.050781 -38.671875 10.328125 -38.023438 10.328125 -37.265625 L 10.328125 -15.359375 C 10.328125 -13.378906 10.785156 -11.597656 11.703125 -10.015625 C 12.617188 -8.441406 13.835938 -7.210938 15.359375 -6.328125 C 16.878906 -5.453125 18.515625 -5.015625 20.265625 -5.015625 C 22.085938 -5.015625 23.78125 -5.453125 25.34375 -6.328125 C 26.90625 -7.210938 28.148438 -8.441406 29.078125 -10.015625 C 30.015625 -11.597656 30.484375 -13.378906 30.484375 -15.359375 L 30.484375 -37.265625 C 30.484375 -38.066406 30.707031 -38.722656 31.15625 -39.234375 C 31.613281 -39.753906 32.242188 -40.015625 33.046875 -40.015625 Z M 33.046875 -40.015625 "/></g></g></g><g fill="#ffffff" fill-opacity="1"><g transform="translate(284.154951, 68.765031)"><g><path d="M 16.84375 0.578125 C 14.0625 0.578125 11.601562 0.1875 9.46875 -0.59375 C 7.34375 -1.375 5.3125 -2.640625 3.375 -4.390625 C 2.570312 -5.078125 2.171875 -5.859375 2.171875 -6.734375 C 2.171875 -7.421875 2.4375 -8.039062 2.96875 -8.59375 C 3.5 -9.144531 4.128906 -9.421875 4.859375 -9.421875 C 5.503906 -9.421875 6.050781 -9.210938 6.5 -8.796875 C 8.03125 -7.378906 9.601562 -6.335938 11.21875 -5.671875 C 12.832031 -5.015625 14.664062 -4.6875 16.71875 -4.6875 C 19.113281 -4.6875 21.140625 -5.234375 22.796875 -6.328125 C 24.453125 -7.429688 25.28125 -8.820312 25.28125 -10.5 C 25.25 -12.476562 24.421875 -14.007812 22.796875 -15.09375 C 21.179688 -16.175781 18.71875 -17.082031 15.40625 -17.8125 C 11.488281 -18.601562 8.472656 -19.910156 6.359375 -21.734375 C 4.253906 -23.566406 3.203125 -26.101562 3.203125 -29.34375 C 3.203125 -31.582031 3.789062 -33.546875 4.96875 -35.234375 C 6.144531 -36.929688 7.78125 -38.238281 9.875 -39.15625 C 11.96875 -40.070312 14.328125 -40.53125 16.953125 -40.53125 C 19.304688 -40.53125 21.53125 -40.148438 23.625 -39.390625 C 25.71875 -38.628906 27.410156 -37.617188 28.703125 -36.359375 C 29.578125 -35.597656 30.015625 -34.78125 30.015625 -33.90625 C 30.015625 -33.21875 29.757812 -32.609375 29.25 -32.078125 C 28.738281 -31.546875 28.117188 -31.28125 27.390625 -31.28125 C 26.859375 -31.28125 26.421875 -31.429688 26.078125 -31.734375 C 25.085938 -32.722656 23.71875 -33.5625 21.96875 -34.25 C 20.21875 -34.9375 18.546875 -35.28125 16.953125 -35.28125 C 14.398438 -35.28125 12.375 -34.753906 10.875 -33.703125 C 9.375 -32.660156 8.625 -31.28125 8.625 -29.5625 C 8.625 -27.695312 9.375 -26.269531 10.875 -25.28125 C 12.375 -24.289062 14.609375 -23.457031 17.578125 -22.78125 C 20.546875 -22.125 22.972656 -21.359375 24.859375 -20.484375 C 26.742188 -19.609375 28.195312 -18.390625 29.21875 -16.828125 C 30.25 -15.273438 30.765625 -13.242188 30.765625 -10.734375 C 30.765625 -8.523438 30.144531 -6.5625 28.90625 -4.84375 C 27.675781 -3.132812 25.992188 -1.800781 23.859375 -0.84375 C 21.722656 0.101562 19.382812 0.578125 16.84375 0.578125 Z M 16.84375 0.578125 "/></g></g></g><g clip-path="url(#553d00f842)"><path fill="#ffffff" d="M 162.757812 0.363281 C 158.621094 0.363281 155.265625 3.769531 155.265625 7.964844 C 155.265625 13.667969 162.757812 22.082031 162.757812 22.082031 C 162.757812 22.082031 170.246094 13.667969 170.246094 7.964844 C 170.246094 3.769531 166.894531 0.363281 162.757812 0.363281 Z M 162.757812 10.679688 C 161.28125 10.679688 160.082031 9.464844 160.082031 7.964844 C 160.082031 6.46875 161.28125 5.25 162.757812 5.25 C 164.234375 5.25 165.433594 6.46875 165.433594 7.964844 C 165.433594 9.464844 164.234375 10.679688 162.757812 10.679688 Z M 162.757812 10.679688 " fill-opacity="1" fill-rule="nonzero"/></g></svg>